<?xml version="1.0" encoding="UTF-8" standalone="no"?>
<!-- Created with Inkscape (http://www.inkscape.org/) -->

<svg
   version="1.1"
   id="svg1"
   width="369"
   height="139"
   viewBox="0 0 369 139"
   sodipodi:docname="detraction-maps-1.png"
   inkscape:version="1.4.3 (0d15f75042, 2025-12-25)"
   xmlns:inkscape="http://www.inkscape.org/namespaces/inkscape"
   xmlns:sodipodi="http://sodipodi.sourceforge.net/DTD/sodipodi-0.dtd"
   xmlns="http://www.w3.org/2000/svg"
   xmlns:svg="http://www.w3.org/2000/svg">
  <defs
     id="defs1" />
  <sodipodi:namedview
     id="namedview1"
     pagecolor="#ffffff"
     bordercolor="#000000"
     borderopacity="0.25"
     inkscape:showpageshadow="2"
     inkscape:pageopacity="0.0"
     inkscape:pagecheckerboard="0"
     inkscape:deskcolor="#d1d1d1"
     inkscape:zoom="4.8130081"
     inkscape:cx="101.59966"
     inkscape:cy="47.994932"
     inkscape:window-width="1920"
     inkscape:window-height="1008"
     inkscape:window-x="0"
     inkscape:window-y="0"
     inkscape:window-maximized="1"
     inkscape:current-layer="g1" />
  <g
     inkscape:groupmode="layer"
     inkscape:label="Image"
     id="g1">
    <path
       style="fill:#000000"
       d="m 19.364361,128.35833 c -4.219184,-2.03413 -7.072464,-6.53439 -7.049048,-11.11794 0.01127,-2.20523 7.363469,-22.239524 19.667446,-53.592564 15.731598,-40.08731 20.259126,-50.67307 22.707178,-53.09137 5.345283,-5.2803205 13.270847,-5.2759405 18.567746,0.0103 2.481042,2.47602 6.294838,11.94331 21.048988,52.25157 9.910419,27.0752 18.259109,50.762784 18.552649,52.639064 1.49009,9.52477 -10.54998,17.73648 -19.421759,13.24626 -4.541397,-2.29851 -5.892617,-4.54758 -10.910035,-18.15947 l -4.842174,-13.136464 -14.748762,-0.008 -14.748763,-0.008 -5.323829,13.382204 c -5.890163,14.80576 -6.679711,16.05516 -11.341438,17.94701 -4.266865,1.73161 -8.048828,1.61892 -12.158199,-0.36226 z m 9.336353,-2.47044 c -0.373165,-1.20628 -1.254562,-3.28999 -1.958661,-4.63047 l -1.28018,-2.43722 -0.96161,2.43599 c -2.685796,6.80376 -2.682695,6.82077 1.244226,6.82294 3.307712,0.002 3.573667,-0.19531 2.956225,-2.19124 z m 73.169476,-0.11269 c -1.1889,-4.73074 -1.16688,-4.90402 0.22816,-1.79598 1.72511,3.84341 2.47125,3.9151 5.92663,0.56944 l 2.68507,-2.59982 -4.34937,-1.80733 c -5.43213,-2.25725 -7.686629,-1.59835 -9.602629,2.80645 -2.10502,4.83938 -1.97147,5.1693 2.093457,5.17155 3.312422,0.002 3.559982,-0.19043 3.018682,-2.34431 z m -78.919927,-3.02772 c 0.747057,-2.06675 1.188695,-3.92411 0.981417,-4.12747 -0.512365,-0.50267 -8.645316,2.69897 -8.649673,3.40505 -0.0071,1.14783 4.388092,5.10221 5.331539,4.79684 0.538137,-0.17418 1.58966,-2.00767 2.336717,-4.07442 z m 11.311384,1.92907 c 1.297939,-1.33726 2.171697,-2.6064 1.941685,-2.82033 -0.469572,-0.43672 -7.933102,-3.52177 -8.520868,-3.5221 -0.738475,-4.1e-4 -0.368271,1.75867 1.103183,5.24193 1.767726,4.1846 2.365892,4.30482 5.476,1.1005 z m 62.778304,-5.90864 c -0.48469,-0.47552 -6.895068,1.51003 -8.030307,2.4873 -0.429052,0.36935 0.431593,1.95462 1.912543,3.52282 l 2.692644,2.85128 1.91871,-4.22845 c 1.05529,-2.32565 1.73317,-4.41048 1.50641,-4.63295 z m -77.14215,-0.0525 c 3.709884,-1.50492 3.778355,-1.61551 1.890937,-3.0539 -1.702023,-1.2971 -1.72255,-1.41266 -0.15684,-0.88293 1.379321,0.46667 2.144915,-0.18003 3.266976,-2.7596 0.806018,-1.853 1.466634,-3.55485 1.468035,-3.78188 0.0024,-0.38135 -7.513278,-3.55241 -8.420631,-3.55291 -0.551443,-3e-4 -2.885369,6.88259 -2.451551,7.22977 0.191367,0.15316 1.244781,0.78824 2.34092,1.4113 1.778558,1.01095 1.697519,1.06743 -0.753228,0.52496 -2.603276,-0.57622 -2.747336,-0.42482 -2.767906,2.90891 -0.02466,3.99739 0.284539,4.10573 5.583288,1.95628 z m 18.220068,-0.84688 c 1.048208,-2.21241 0.830286,-2.63037 -2.541503,-4.87445 -4.547018,-3.02624 -4.632326,-3.02587 -6.078506,0.0265 -1.734915,3.66181 -1.510839,4.29596 2.053593,5.81182 4.497016,1.91247 5.256451,1.80099 6.566416,-0.96389 z m 57.496502,-2.94369 c -0.30413,-4.2655 -1.68287,-4.85752 -5.701413,-2.44813 -3.835425,2.29961 -4.159618,3.03444 -2.603524,5.90132 0.90565,1.66853 1.330687,1.71745 4.746555,0.54635 3.216712,-1.10282 3.724242,-1.67327 3.558382,-3.99954 z m 15.697649,1.99352 c 0.0242,-3.92369 -0.89141,-4.17404 -6.6166,-1.80911 l -3.88197,1.60354 3.98895,1.78209 c 5.68826,2.54129 6.4854,2.34823 6.50962,-1.57652 z m -1.161,-4.92683 c 0.41673,-0.30023 -2.5459,-7.25782 -3.0906,-7.25812 -0.53182,-2.9e-4 -8.076262,3.01968 -8.502599,3.40352 -0.17066,0.15365 0.360277,1.86677 1.179877,3.80694 l 1.490172,3.52758 4.30661,-1.62831 c 2.36861,-0.89557 4.44606,-1.7288 4.61654,-1.85161 z m -68.173604,-4.04502 2.355984,-5.56601 -3.609159,-4.446843 -3.609159,-4.446861 4.045961,3.75762 4.04596,3.757604 0.69242,-2.990303 c 0.559097,-2.414531 0.07468,-3.873441 -2.515821,-7.576861 l -3.208241,-4.58654 -3.018324,7.60555 -3.018323,7.605534 3.86556,3.33221 c 2.126058,1.83272 2.931269,2.89398 1.789357,2.35837 -1.141912,-0.53561 -2.652576,-1.65596 -3.357031,-2.48967 -0.704455,-0.8337 -1.621126,-1.51602 -2.037048,-1.51625 -1.030473,-5.6e-4 -3.450235,5.76533 -2.720127,6.48163 1.482485,1.45442 7.192725,4.9724 7.546139,4.64904 0.217728,-0.19922 1.456062,-2.86692 2.751852,-5.92822 z m 47.81152,3.50335 c 3.989325,-2.28372 3.999825,-2.3112 2.506693,-6.55982 l -1.072066,-3.0505 -3.806532,3.09694 c -3.448161,2.80538 -3.716212,3.35394 -2.847178,5.82673 0.527644,1.50138 1.114607,2.72987 1.304361,2.72997 0.189755,1.1e-4 1.951379,-0.91939 3.914722,-2.04332 z m -61.351225,-8.33759 c 0.989048,-2.86798 0.962015,-3.703861 -0.144817,-4.477742 -1.06254,-0.742901 -0.994746,-0.837301 0.309254,-0.430581 1.198267,0.373741 1.979548,-0.32933 2.765311,-2.488491 1.582691,-4.349 1.475011,-4.61636 -2.516372,-6.24805 -3.864598,-1.57986 -4.333983,-1.36849 -6.166455,2.77687 -1.07486,2.43151 -0.941328,2.78858 1.534722,4.10391 1.491608,0.79237 2.344829,1.458041 1.896047,1.479251 -0.448782,0.0212 -1.673257,-0.410511 -2.721056,-0.959391 -1.637778,-0.85794 -2.121857,-0.49963 -3.449961,2.553633 -1.956791,4.498581 -2.09034,4.051091 1.692009,5.669561 4.822852,2.0637 5.472346,1.87472 6.801318,-1.97897 z m 58.888368,0.82721 3.374851,-2.73038 -2.167937,-6.214634 c -3.27835,-9.39778 -3.577625,-9.76541 -7.951555,-9.76783 -3.568696,-0.002 -3.977878,0.28989 -5.488887,3.91512 -2.143968,5.14384 -2.072965,5.82712 0.60546,5.82652 1.58105,-3.5e-4 3.111575,-1.31667 5.148064,-4.42757 1.593953,-2.43489 3.112681,-4.21654 3.374952,-3.95924 0.26227,0.25731 -0.842735,2.30763 -2.455567,4.55628 l -2.932422,4.08844 2.020881,5.721544 c 1.111484,3.14684 2.263077,5.72167 2.559095,5.72184 0.296018,1.6e-4 2.056898,-1.22838 3.913065,-2.73009 z m -4.04045,-5.768323 c 2.628457,-3.656341 4.937866,-5.428251 3.350704,-2.570851 -0.560143,1.00848 -2.050563,2.705231 -3.312044,3.770602 l -2.293603,1.937042 z m 19.965811,6.985713 c 3.86211,-1.50035 3.90215,-1.56802 2.88246,-4.87143 -1.15445,-3.740044 -2.16302,-4.000374 -7.348552,-1.896853 -2.798147,1.135072 -3.429477,1.830543 -2.873917,3.165883 0.39158,0.9412 0.93366,2.47889 1.20461,3.4171 0.60371,2.09041 1.18612,2.108 6.135399,0.1853 z m -2.64815,-8.290694 c 2.02098,-0.64133 3.50306,-1.65579 3.29352,-2.25438 -0.20954,-0.59858 -0.81795,-2.27435 -1.35203,-3.72394 l -0.97105,-2.63561 -4.614399,1.52671 c -3.3198,1.09838 -4.457842,1.93081 -4.056332,2.96703 0.306952,0.79218 0.828242,2.51526 1.158422,3.82908 0.33017,1.313811 1.1104,2.179142 1.73384,1.922961 0.62343,-0.25619 2.78705,-0.990521 4.808029,-1.631851 z m -48.700605,-4.10213 c -1.823287,-5.87618 -3.360572,-7.55506 -6.919646,-7.55703 -1.91084,-10e-4 -3.475841,0.25531 -3.477781,0.56971 -0.0019,0.31439 1.410787,2.50804 3.139393,4.87477 2.214481,3.03197 3.851251,4.30354 5.540741,4.30447 2.025624,10e-4 2.292188,-0.33912 1.717293,-2.19192 z m 7.018477,-0.48342 c -0.310887,-1.47427 -0.764495,-3.66739 -1.008017,-4.8736 -0.369617,-1.83079 -1.09778,-2.19347 -4.407461,-2.1953 l -3.964694,-0.002 1.673327,3.6557 c 2.417535,5.28157 3.199871,6.09307 5.875533,6.09455 2.088817,0.001 2.323978,-0.34289 1.831312,-2.67916 z m 6.920818,-0.36166 c 1.297298,-6.13665 1.015563,-6.69987 -3.352646,-6.70228 -3.758664,-0.002 -3.98633,0.15561 -3.514967,2.43458 0.277205,1.34024 0.730813,3.53335 1.008018,4.87359 0.365378,1.76655 1.152013,2.43716 2.859911,2.4381 1.838627,10e-4 2.497256,-0.66734 2.999684,-3.04399 z m 7.669158,-1.41665 c 1.095592,-2.45599 1.993113,-4.64836 1.994493,-4.87194 0.0014,-0.22357 -1.797458,-0.40749 -3.997416,-0.40871 -3.244383,-0.002 -4.002054,0.34296 -4.011199,1.82517 -0.0062,1.00507 -0.300976,3.19777 -0.655055,4.87268 -0.591981,2.80027 -0.429716,3.04541 2.016706,3.04677 2.207885,0.001 2.999364,-0.7582 4.652471,-4.46397 z m -38.51062,-3.98854 c 0.851669,-1.95796 1.430737,-3.66584 1.286818,-3.7953 -0.321764,-0.28943 -7.87745,-3.36826 -8.266512,-3.36848 -0.373493,-2e-4 -2.512145,5.91274 -2.518628,6.96351 -0.0046,0.74045 5.364251,3.47949 7.213759,3.68027 0.404842,0.044 1.432895,-1.52205 2.284563,-3.48 z m 63.93625,1.66642 c 2.333102,-0.86128 2.445832,-1.15986 1.376652,-3.64624 -1.803909,-4.19499 -2.247399,-4.40273 -6.659049,-3.11926 -4.597303,1.33748 -4.578038,1.3013 -3.033407,5.69646 1.168765,3.32565 1.935785,3.42425 8.315804,1.06904 z m -61.12342,-8.58114 c 0.282531,-0.9379 0.812589,-2.39752 1.177907,-3.24359 0.443507,-1.02715 -0.09484,-1.90942 -1.620138,-2.65515 -2.239597,-1.09497 -2.233205,-1.10637 0.326252,-0.58164 1.96132,0.4021 2.743308,0.0931 3.144164,-1.24243 0.293456,-0.9777 0.839469,-2.48742 1.213361,-3.35492 0.514223,-1.19311 -0.310793,-1.96507 -3.387175,-3.16935 -2.236837,-0.87564 -4.238846,-1.59216 -4.448909,-1.59228 -0.210062,-1.1e-4 -0.898985,1.42058 -1.530941,3.1571 -0.981509,2.69704 -0.890473,3.35114 0.62448,4.48688 1.645201,1.2334 1.618912,1.28464 -0.363412,0.7084 -1.750864,-0.50895 -2.340743,-0.061 -3.265248,2.47935 -1.467845,4.03342 -1.611648,3.67486 2.108301,5.25686 4.305409,1.83099 5.408477,1.78533 6.021358,-0.24923 z m 15.225291,-2.16656 c 2.151513,-2.13311 3.624405,-4.16038 3.273094,-4.50504 -0.35131,-0.34466 -2.961856,0.9917 -5.801212,2.96969 -2.839356,1.978 -5.349037,3.41332 -5.57707,3.1896 -0.843386,-0.82743 10.779435,-7.56348 11.943624,-6.92197 0.935855,0.51568 0.941533,0.38295 0.02522,-0.58949 -0.958276,-1.01698 -2.256526,-0.83184 -6.844388,0.97604 -5.833305,2.29864 -8.169646,5.14791 -6.115007,7.45751 1.991184,2.23827 5.138851,1.3467 9.095742,-2.57634 z m 6.732597,-1.23243 c 0.982311,-2.54562 1.47351,-4.62858 1.091553,-4.62879 -1.010269,-5.5e-4 -9.319684,8.04621 -9.32576,9.03099 -0.0028,0.45839 1.446857,0.69681 3.221523,0.52982 2.83889,-0.26714 3.441305,-0.85986 5.012684,-4.93202 z m 5.953687,4.61051 c 0.792375,-0.76721 -1.339938,-9.23735 -2.325592,-9.2379 -0.876813,-4.8e-4 -2.329473,3.09234 -3.452499,7.35064 -0.563067,2.13504 -0.313838,2.39336 2.310538,2.39481 1.617927,8.9e-4 3.178326,-0.2275 3.467553,-0.50755 z m 7.812671,-0.35544 c 0.007,-1.12795 -6.21532,-8.76422 -7.195402,-8.83053 -1.021884,-0.0691 -0.944094,1.70221 0.265302,6.04114 0.88345,3.16955 1.411304,3.65556 3.971797,3.65698 1.624117,8.9e-4 2.955353,-0.38952 2.958303,-0.86759 z m 8.460943,-0.93802 c 0.906659,-2.73188 -0.243115,-4.70005 -3.521953,-6.02884 -1.624029,-0.65816 -2.750687,-1.39233 -2.503686,-1.63149 0.247002,-0.23916 1.384597,0.0552 2.527989,0.65417 2.371877,1.24249 2.440589,1.10028 1.124743,-2.32778 -0.866091,-2.25635 -1.474843,-2.49679 -6.234708,-2.46256 l -5.274903,0.0379 3.488411,1.86944 c 1.918626,1.02819 3.12122,1.88762 2.672432,1.90984 -0.448787,0.0222 -1.737705,-0.44243 -2.864261,-1.03257 -1.489399,-0.78021 -1.864633,-0.78042 -1.375215,-7.6e-4 0.370187,0.58972 0.174159,1.07194 -0.435618,1.0716 -1.456646,-8e-4 -0.334523,1.88144 3.726299,6.25046 3.621303,3.89615 7.676088,4.68674 8.67047,1.69055 z m -5.935494,-3.19286 c -4.476744,-3.28397 -6.902018,-5.54135 -4.455382,-4.14694 2.971734,1.69367 9.94082,6.49307 9.938652,6.84446 -0.0055,0.88669 -1.802203,0.003 -5.48327,-2.69752 z m 18.479298,3.92085 c 3.68771,-1.07286 3.72758,-1.13701 2.72524,-4.38423 -1.13615,-3.68072 -1.37158,-3.7556 -6.822496,-2.16977 -4.252765,1.23724 -4.409583,1.53278 -2.737292,5.1587 1.300392,2.81955 1.675646,2.89616 6.834548,1.3953 z M 57.06173,68.481606 c 0.525242,-0.44568 -1.609966,-0.81175 -4.744907,-0.81348 -3.13494,-0.002 -5.708065,0.32578 -5.718056,0.7278 -0.01,0.40202 -0.294649,1.71416 -0.632574,2.91588 l -0.61441,2.18493 5.377481,-2.1024 c 2.957615,-1.15632 5.807224,-2.46705 6.332466,-2.91273 z m 34.375647,3.98583 c 3.352024,-1.13464 3.738674,-2.19776 2.229354,-6.12984 -0.942042,-2.45421 -0.944672,-2.45467 -5.494056,-0.94947 -2.50336,0.82825 -4.552258,1.61853 -4.553108,1.75617 -8.49e-4,0.13764 0.483946,1.63169 1.077323,3.32011 1.17898,3.35472 2.014092,3.60288 6.740487,2.00303 z m -25.804834,-7.95943 c -1.080097,-2.81478 -1.987828,-5.33707 -2.017181,-5.60511 -0.09526,-0.86982 -3.88194,8.24383 -3.947316,9.50025 -0.04061,0.78042 1.372637,1.21902 3.93246,1.22043 l 3.995848,0.002 z m -7.005011,1.4086 c 0.0026,-0.42922 -1.978433,-1.72334 -4.402404,-2.87581 l -4.40722,-2.09542 -1.045473,2.87281 -1.045472,2.8728 5.447877,0.003 c 2.996333,0.002 5.450044,-0.34817 5.452692,-0.77739 z m 17.633777,-5.05751 c -1.136203,-3.21683 -2.342321,-5.84894 -2.680262,-5.84913 -1.001804,-5.5e-4 -6.281163,7.78027 -5.679495,8.37055 0.303749,0.298 1.99034,-0.17992 3.747978,-1.06205 1.757639,-0.88213 3.382344,-1.42077 3.610455,-1.19698 0.228111,0.22379 -1.382403,1.19361 -3.57892,2.15514 -5.008076,2.19231 -4.341841,3.42519 1.852781,3.42861 l 4.793287,0.003 z m -31.864174,1.7888 c 0.663622,-1.68629 0.97154,-3.44041 0.684261,-3.89806 -0.287278,-0.45764 -0.09826,-0.83184 0.420044,-0.83155 0.518302,2.9e-4 1.173529,-0.76686 1.456059,-1.70476 0.282531,-0.9379 0.833835,-2.45064 1.225122,-3.36163 0.547081,-1.27372 -0.14343,-2.00582 -2.98907,-3.16913 -2.035274,-0.83202 -4.051515,-1.51297 -4.480535,-1.5132 -1.058455,-5.9e-4 -3.125046,5.85342 -2.447447,6.93285 0.297939,0.47463 0.10918,0.86272 -0.419466,0.86243 -0.758168,-4.2e-4 -3.18715,4.92009 -3.196749,6.47582 -0.0028,0.45275 6.204302,3.09158 7.510943,3.19313 0.566638,0.044 1.573215,-1.29961 2.236838,-2.9859 z m -3.713941,-5.70688 c -0.821779,-0.52007 -1.044151,-0.94534 -0.494162,-0.94503 0.54999,3e-4 1.672345,0.42606 2.494124,0.94613 0.821778,0.52008 1.04415,0.94534 0.494161,0.94504 -0.54999,-3.1e-4 -1.672345,-0.42607 -2.494123,-0.94614 z m 49.473072,6.84363 c 1.435603,-0.52996 2.373943,-1.3399 2.085203,-1.79987 -0.28874,-0.45997 -0.962399,-1.97588 -1.497023,-3.36869 l -0.972043,-2.53237 -4.551564,1.50591 c -2.50336,0.82826 -4.552258,1.61854 -4.553107,1.75618 -8.5e-4,0.13763 0.495833,1.66551 1.103738,3.39527 1.171198,3.33257 1.928723,3.42685 8.384796,1.04357 z m -31.420365,-1.71697 c -1.710231,-2.99202 -5.840155,-7.57412 -6.369995,-7.06743 -0.281249,0.26897 -0.805094,1.6028 -1.1641,2.96408 -0.554611,2.10297 -0.157204,2.71622 2.643505,4.07922 4.508743,2.19423 6.135603,2.20226 4.89059,0.0241 z m 1.665805,-2.4356 c -0.02171,-1.20609 0.531517,-5.92045 1.229391,-10.47635 0.697874,-4.55591 1.118647,-10.91499 0.935052,-14.1313 -0.325642,-5.70474 -0.343602,-5.65706 -0.733992,1.94881 l -0.400182,7.79664 -0.613237,-5.36068 -0.613238,-5.36068 -0.844029,4.14161 c -0.464216,2.27789 -1.184026,4.14143 -1.599576,4.1412 -1.762584,-9.7e-4 -1.753452,4.4755 0.01821,8.92504 1.049564,2.63598 1.881568,5.32467 1.848899,5.97485 -0.03267,0.65018 -0.973356,-1.17446 -2.090416,-4.05476 -1.456606,-3.7558 -2.279178,-4.8588 -2.908472,-3.90003 -1.584423,2.41397 -0.976249,4.80551 2.213771,8.70527 1.728982,2.11366 3.245683,3.84308 3.370447,3.84315 0.124765,7e-5 0.209083,-0.98668 0.187374,-2.19277 z m -1.122023,-11.00926 c -0.367172,-2.48624 -0.461814,-4.71968 -0.210315,-4.9632 0.251498,-0.24351 0.757683,1.59145 1.124855,4.0777 0.367172,2.48625 0.461814,4.71969 0.210316,4.9632 -0.251499,0.24352 -0.757684,-1.59145 -1.124856,-4.0777 z m 13.38775,3.95013 c 0.01299,-1.07206 -0.362224,-2.54869 -0.833805,-3.2814 -0.608006,-0.94467 -1.367071,0.13642 -2.609462,3.71648 -0.963624,2.77677 -1.931272,4.87283 -2.150331,4.65792 -0.219058,-0.21491 0.522827,-2.95475 1.648633,-6.08853 1.125807,-3.13378 1.781815,-6.52773 1.457797,-7.54211 -0.743458,-2.3275 -1.416593,-1.68226 -2.497637,2.39413 -0.601863,2.2695 -0.673541,1.54331 -0.243459,-2.46656 0.346042,-3.22633 0.160298,-6.59691 -0.429679,-7.7971 -0.571569,-1.16274 -1.508285,-3.43006 -2.081592,-5.03848 -0.802915,-2.25259 -0.973048,-0.0138 -0.740592,9.74567 0.16598,6.96854 0.878451,14.35721 1.583269,16.41926 l 1.281486,3.7492 2.795878,-3.25964 c 1.537734,-1.7928 2.806506,-4.13678 2.819494,-5.20884 z m -6.762709,-0.004 c 0.0303,-1.60809 0.257747,-2.14783 0.505435,-1.19943 0.247687,0.9484 0.222895,2.2641 -0.05509,2.92379 -0.277989,0.65969 -0.480643,-0.11627 -0.450341,-1.72436 z m -0.817731,-9.25923 c 0.0215,-3.48421 0.211784,-4.90947 0.422858,-3.16724 0.211073,1.74223 0.193484,4.59295 -0.03909,6.33493 -0.232571,1.74198 -0.405268,0.31652 -0.38377,-3.16769 z m 22.043693,12.70335 c 2.257495,-0.83336 2.426406,-1.22299 1.535914,-3.54291 -1.597004,-4.16053 -1.741209,-4.21992 -6.457824,-2.65939 -2.470235,0.81729 -4.492031,1.5986 -4.49288,1.73624 -8.49e-4,0.13764 0.495833,1.66551 1.103739,3.39527 1.168593,3.32517 1.936269,3.42408 8.311051,1.07079 z M 50.00555,48.418046 c 0.28253,-0.9379 0.843576,-2.47499 1.246768,-3.41575 0.572037,-1.33472 -0.05071,-2.03088 -2.83483,-3.16904 -4.881758,-1.99568 -5.276931,-1.89796 -6.557786,1.62164 -1.304015,3.58324 -1.489751,3.25707 2.9207,5.1291 4.418311,1.87537 4.612083,1.86922 5.225148,-0.16595 z m 34.109542,-0.17993 c 2.318671,-0.85595 2.404921,-1.13232 1.384787,-4.43719 -0.914674,-2.96321 -1.441964,-3.43809 -3.311628,-2.98246 -4.640512,1.13086 -4.828285,1.10831 -1.775985,-0.21329 3.009274,-1.30298 3.094623,-1.49642 2.092558,-4.74275 -1.107296,-3.58725 -1.749859,-3.69429 -8.101355,-1.34961 -2.338006,0.86309 -2.435103,1.14859 -1.405785,4.13353 0.608127,1.76352 1.368118,3.42584 1.688867,3.69403 0.32075,0.2682 0.605571,0.92621 0.632937,1.46226 0.02737,0.53605 0.411914,2.21442 0.854553,3.7297 0.846805,2.89887 1.776407,2.98149 7.941051,0.70578 z M 53.0536,40.622866 c 0.282531,-0.9379 0.843576,-2.47499 1.246768,-3.41575 0.572037,-1.33472 -0.05071,-2.03088 -2.83483,-3.16904 -4.881758,-1.99568 -5.276931,-1.89796 -6.557786,1.62164 -1.304596,3.58484 -1.550374,3.15493 2.875603,5.02991 4.560059,1.93178 4.668628,1.9304 5.270245,-0.0668 z m 5.085444,-13.23322 c 1.523635,-3.92876 2.771791,-7.39375 2.773681,-7.69999 0.004,-0.65223 -5.708223,-2.69984 -7.534616,-2.70085 -1.048182,-5.8e-4 -4.020199,5.80559 -3.242141,6.33388 0.139393,0.0947 2.048801,0.91987 4.243127,1.83382 2.194327,0.91395 2.86639,1.38828 1.493473,1.05407 -1.372916,-0.33422 -3.448894,-0.83232 -4.613285,-1.10689 -1.690916,-0.39873 -2.349341,0.13902 -3.270941,2.67144 -0.634627,1.74386 -1.039993,3.27637 -0.900813,3.40558 0.346097,0.3213 7.107041,3.17309 7.757983,3.27235 0.287808,0.0439 1.769897,-3.13465 3.293532,-7.06341 z m 18.076077,5.58036 c 3.713974,-1.22879 4.605094,-1.91941 4.084152,-3.16522 -0.36648,-0.87642 -0.896556,-2.39369 -1.177945,-3.37171 -0.527829,-1.83457 -2.085799,-1.78007 -7.630903,0.26693 -2.30891,0.85235 -2.401853,1.14225 -1.403308,4.37718 0.588154,1.90541 1.138706,3.46442 1.223448,3.46447 0.08474,4e-5 2.291793,-0.7072 4.904556,-1.57165 z m 1.6745,-9.57889 c 8.5e-4,-0.13764 -0.49914,-1.67493 -1.111088,-3.41619 -0.998402,-2.84089 -1.433036,-3.11578 -4.233414,-2.67747 l -3.12078,0.48846 2.756547,-1.06805 c 3.264854,-1.26499 3.379822,-1.79273 0.874811,-4.01569 -1.807211,-1.60372 -2.003805,-1.53206 -4.510074,1.64402 -3.077352,3.89978 -3.265753,4.75101 -0.87441,3.95071 1.639954,-0.54883 1.64322,-0.49948 0.05039,0.76157 -1.512765,1.19767 -1.551024,1.69846 -0.342179,4.47894 l 1.361022,3.13051 4.573813,-1.51328 c 2.515598,-0.8323 4.574509,-1.62589 4.575358,-1.76353 z M 62.942982,12.299326 c 0.03842,-3.9161409 -0.114937,-4.1611209 -2.212841,-3.5349308 -3.211584,0.95859 -3.206497,0.92709 -0.808946,5.0095808 1.197447,2.03899 1.438085,2.82969 0.534751,1.75713 -0.903335,-1.07257 -2.020712,-2.59907 -2.483061,-3.39222 -0.721331,-1.23743 -1.137712,-1.18164 -2.933913,0.39309 -1.151304,1.00934 -2.094973,2.10965 -2.097043,2.44512 -0.0021,0.33548 1.904636,1.2697 4.237124,2.07606 5.016511,1.73424 5.705863,1.16569 5.763929,-4.75383 z m 4.636568,1.75399 c 1.476559,-2.15422 2.50646,-4.0915908 2.288668,-4.3052608 -0.217792,-0.21367 -1.630673,-0.69165 -3.139736,-1.06218 -2.724486,-0.6689701 -2.743966,-0.6387401 -2.77447,4.3049808 -0.0169,2.73828 0.187892,4.9788 0.455084,4.97895 0.267191,1.5e-4 1.693896,-1.76227 3.170454,-3.91649 z m 79.41528,114.194504 c -2.05805,-0.42379 -4.68428,-1.60678 -5.83607,-2.62888 -4.92835,-4.37344 -4.87784,-3.72329 -4.54024,-58.439514 0.35034,-56.779711 0.27342,-56.09962 6.7903,-60.0372405 2.88447,-1.74284 4.89962,-1.84639 30.08911,-1.54617 25.71631,0.30649 27.28131,0.4322 32.97577,2.6487196 8.19745,3.1908109 16.30995,11.1890909 19.35265,19.0801809 3.30129,8.56175 3.13086,20.22742 -0.4181,28.61844 l -2.62584,6.20841 3.32021,4.7476 c 5.21711,7.45996 6.7319,13.24454 6.1876,23.62869 -0.36616,6.98556 -1.04418,10.119254 -3.13414,14.485364 -5.0695,10.59067 -14.85588,18.42383 -27.40737,21.93725 -5.69836,1.59509 -48.39473,2.60659 -54.75388,1.29715 z m 2.28339,-5.94811 c 0.0165,-2.68016 -0.33573,-4.87322 -0.78282,-4.87347 -1.61653,-8.9e-4 -6.42644,5.70818 -5.73593,6.80819 0.65569,1.04453 4.02706,2.73408 5.73908,2.87611 0.41228,0.0342 0.76314,-2.13067 0.77967,-4.81083 z m 11.99977,0.007 0.0301,-4.87302 -5.49989,-0.003 -5.4999,-0.003 -0.0301,4.87302 -0.0301,4.87303 5.49989,0.003 5.4999,0.003 z m 10.99979,0.006 0.0301,-4.87303 -4.9999,-0.003 -4.99991,-0.003 -0.0301,4.87302 -0.0301,4.87302 4.9999,0.003 4.99991,0.003 z m 9.9998,0.006 0.0301,-4.87302 -4.4999,-0.002 -4.49992,-0.002 -0.0301,4.87303 -0.0301,4.87302 4.49991,0.002 4.49991,0.002 z m 9.95212,2.68567 c 0.70327,-1.67974 0.93026,-1.79356 0.97076,-0.48677 0.0565,1.82416 1.78452,2.09949 6.91975,1.10254 2.72498,-0.52902 3.05465,-0.92717 2.6215,-3.16603 -0.4658,-2.40757 -0.43695,-2.42957 0.48177,-0.36749 1.2083,2.71206 1.0422,2.71828 7.11058,-0.26631 5.37375,-2.64296 5.40859,-2.87603 1.20958,-8.09163 l -1.82935,-2.27224 -4.09213,2.07007 c -3.25294,1.64554 -4.0082,2.51063 -3.68282,4.21841 l 0.40932,2.14834 -0.97637,-2.17717 c -0.53701,-1.19745 -1.55722,-2.00214 -2.26714,-1.78822 -0.70992,0.21393 -2.52987,0.65255 -4.04435,0.97471 -2.12925,0.45295 -2.79126,1.1892 -2.91982,3.24727 l -0.16625,2.66151 -0.40005,-2.68039 c -0.35834,-2.40098 -0.81009,-2.68062 -4.33354,-2.68257 l -3.93351,-0.002 -0.0301,4.87302 -0.0301,4.87302 4.03215,0.002 c 3.24687,0.002 4.21091,-0.42474 4.95005,-2.19013 z m -47.73995,-5.3254 c 1.55146,-1.43952 2.82303,-2.97382 2.82572,-3.40957 0.003,-0.43575 -2.02008,-0.79338 -4.49503,-0.79475 -4.79617,-0.003 -5.57698,1.09984 -3.49521,4.93518 1.33301,2.45588 1.80141,2.3896 5.16452,-0.73086 z m 77.99582,-7.28854 1.94775,-2.63985 -3.95777,-2.56506 -3.95777,-2.56505 -2.98671,3.23445 -2.9867,3.23446 2.99848,3.71972 c 2.91803,3.61991 3.05211,3.67278 4.99673,1.97045 1.09903,-0.9621 2.87473,-2.93721 3.94599,-4.38912 z m -75.13214,-2.27362 0.0271,-4.38572 -4.49992,-0.002 -4.49991,-0.002 -0.0271,4.38572 -0.0271,4.38572 4.49991,0.002 4.49992,0.002 z m 17.8708,-1.20839 3.1288,-4.62766 -2.57585,-0.31883 c -1.84827,-0.22877 -4.03885,0.84754 -7.75535,3.8105 l -5.1795,4.12932 4.77967,-4.82022 c 2.62881,-2.65112 4.78431,-5.57266 4.78998,-6.49231 0.0136,-2.200643 -0.51801,-2.125383 -5.667,0.80239 -3.77173,2.14465 -4.35578,2.91461 -4.37337,5.76552 -0.0338,5.48014 0.73004,6.37398 5.44922,6.37659 3.99774,0.002 4.47724,-0.29736 7.4034,-4.6253 z m 9.34584,-0.48214 1.78656,-4.6284 -3.23228,-4e-5 c -2.72606,-4e-5 -3.66707,0.66416 -6.00841,4.24096 -1.52687,2.33255 -2.77802,4.54916 -2.78035,4.92579 -0.002,0.37664 1.89751,0.55099 4.22185,0.38745 4.04174,-0.28439 4.30399,-0.49924 6.01263,-4.92576 z m 7.7917,0.24795 c 0.0281,-4.56089 -0.13164,-4.87311 -2.49462,-4.87441 -2.53448,-0.001 -3.57678,1.49454 -5.12095,7.34971 -0.59349,2.2504 -0.38602,2.39332 3.47719,2.39546 l 4.10832,0.002 z m 18.7389,1.75319 c 2.89384,-1.03399 5.26399,-2.28012 5.26701,-2.76918 0.003,-0.48907 -1.22442,-2.24055 -2.72764,-3.89219 -3.16589,-3.47849 -6.81004,-3.21647 -5.83301,0.41942 1.42663,5.30903 1.41503,6.54712 -0.0256,2.73697 -1.27342,-3.36781 -2.01223,-4.13895 -3.73697,-3.9005 -1.72459,0.23844 -2.27372,1.16451 -2.7766,4.68261 l -0.62685,4.38538 -0.12464,-4.14215 c -0.12205,-4.05625 -0.19721,-4.14219 -3.62457,-4.14408 l -3.49993,-0.002 -0.03,4.85808 -0.03,4.85808 6.25364,-0.60526 c 3.4395,-0.3329 8.62133,-1.45125 11.51516,-2.48524 z m 25.29953,-3.72711 c 0.61028,-1.0987 1.74484,-3.72265 2.52124,-5.83099 l 1.41163,-3.833344 -3.19396,-0.98834 -3.19397,-0.98833 3.2471,0.46143 c 2.14956,0.30546 3.25332,0.0579 3.26548,-0.73246 0.0101,-0.65663 0.30744,-2.83837 0.66074,-4.84831 l 0.64238,-3.65442 -5.13074,-0.003 c -4.21457,-0.002 -5.13507,0.30172 -5.15493,1.70272 -0.0133,0.93805 -0.3016,2.69218 -0.64067,3.89807 -0.47262,1.68085 -0.18104,2.21916 1.2494,2.30662 1.5958,0.0976 1.62074,0.17686 0.1723,0.54778 -0.93148,0.23853 -2.48761,2.42816 -3.45806,4.865853 -1.50941,3.791491 -1.55875,4.547911 -0.34133,5.233041 0.78272,0.44049 2.31895,1.47532 3.41385,2.29963 2.63711,1.98539 3.21543,1.92971 4.52954,-0.43611 z m -14.52424,-4.87559 c -0.25379,-0.4043 -1.98537,-1.61537 -3.84794,-2.691272 -2.47141,-1.427592 -3.68676,-1.665462 -4.49769,-0.880271 -1.68093,1.627552 -1.37769,2.755213 1.54628,5.750143 l 2.66945,2.73423 2.29567,-2.08887 c 1.26262,-1.14888 2.08802,-2.41966 1.83423,-2.82396 z m -64.45939,-1.941251 0.0301,-4.873023 -4.49992,-0.003 -4.49991,-0.002 -0.0301,4.873023 -0.0301,4.873011 4.49992,0.002 4.49991,0.002 z m 11.25395,-0.668351 c 4.64101,-2.800952 5.18892,-6.095312 1.03851,-6.244262 l -2.74935,-0.0987 2.50414,-0.67636 c 3.83341,-1.03541 3.51317,-5.2374 -0.46255,-6.06924 l -2.99608,-0.62687 3.25065,-0.11352 c 4.89649,-0.17099 4.38609,-3.29182 -1.0483,-6.40975 -2.37736,-1.364 -4.62044,-2.48016 -4.98461,-2.48036 -0.36418,-2e-4 -0.67296,1.75392 -0.68619,3.89805 -0.0186,3.01998 0.37012,3.92411 1.72522,4.01244 1.66597,0.10859 1.6658,0.1352 -0.003,0.55877 -1.29392,0.32832 -1.7589,1.44651 -1.77633,4.27169 -0.0202,3.27964 0.29805,3.84612 2.22553,3.96093 l 2.24913,0.13396 -2.25256,0.42112 c -1.93707,0.36214 -2.25634,1.03395 -2.27956,4.796582 -0.02,3.234542 0.30009,4.187922 1.22742,3.656272 0.68993,-0.39554 2.9482,-1.7414 5.01838,-2.990782 z m 40.09199,0.400111 c 8.20492,-5.220933 9.0482,-16.652883 1.56033,-21.152803 -2.9739,-1.7872 -4.72374,-1.93921 -19.76402,-1.71693 l -16.50125,0.24388 -0.35771,12.51041 -0.35771,12.510404 16.32958,-0.31899 c 13.67753,-0.26718 16.77803,-0.60434 19.09078,-2.075971 z m 15.63945,-1.585152 c 0.67941,-1.575371 0.94327,-3.329521 0.58635,-3.898111 -0.35693,-0.56858 -0.1724,-1.03352 0.41004,-1.0332 0.58245,3.2e-4 1.06847,-1.53442 1.08005,-3.41053 0.0206,-3.33664 -0.0717,-3.41489 -4.22782,-3.58374 l -4.24887,-0.17262 4.25222,-0.37072 c 4.53792,-0.39563 4.78221,-0.72772 3.32599,-4.52147 -0.92651,-2.41377 -0.97997,-2.42404 -4.87776,-0.93747 l -3.94098,1.50305 0.0422,5.50073 c 0.0232,3.02541 -0.31127,6.4264 -0.7433,7.55775 -0.63878,1.67281 -0.16579,2.43165 2.53237,4.062742 4.35628,2.633462 4.37435,2.631302 5.8095,-0.696411 z m -4.67128,-5.609841 c 0.97447,-0.24656 2.32435,-0.22957 2.99972,0.0378 0.67537,0.26734 -0.12193,0.46908 -1.77177,0.44831 -1.64985,-0.0208 -2.20243,-0.23951 -1.22795,-0.48608 z m -62.24796,-3.25742 0.0301,-4.87302 -4.49991,-0.002 -4.49992,-0.002 -0.0301,4.87302 -0.0301,4.87303 4.49992,0.002 4.49991,0.002 z m 83.03701,-6.20937 c 0.0287,-4.64465 -0.87496,-5.44054 -6.18029,-5.44347 -4.14842,-0.002 -4.89816,0.25983 -4.40244,1.53919 0.32861,0.84807 0.59092,2.60251 0.58292,3.89875 -0.0134,2.17843 0.36388,2.35701 4.98537,2.35957 4.62148,0.003 5.001,-0.17562 5.01444,-2.35404 z m -82.97387,-4.02397 0.0271,-4.38572 -4.49992,-0.003 -4.49991,-0.002 -0.0271,4.38572 -0.0271,4.38572 4.49991,0.003 4.49992,0.002 z m 63.32853,0.15679 3.83997,-1.54769 -2.2479,-3.10423 -2.24789,-3.10422 -3.32826,3.72477 c -2.54604,2.84936 -3.07038,4.02994 -2.23105,5.02327 0.60346,0.71418 1.38474,1.1314 1.73618,0.92716 0.35143,-0.20425 2.36696,-1.06783 4.47895,-1.91906 z m -48.32255,-1.16487 c 0.005,-0.82701 -2.09765,-3.78854 -4.6728,-6.58118 l -4.68207,-5.07752 4.55022,4.21632 c 3.72812,3.45453 5.12619,4.15965 7.73808,3.9027 l 3.18785,-0.31361 -3.14599,-4.19232 c -3.00753,-4.00782 -3.34969,-4.17958 -7.77459,-3.90273 l -4.62861,0.2896 -0.0269,4.35471 c -0.0251,4.06279 0.24036,4.50286 3.95943,6.56476 4.73682,2.62613 5.48309,2.72653 5.49535,0.73927 z m 43.21337,-3.04054 c 3.53718,-3.28197 3.5243,-3.80052 -0.14052,-5.65537 -2.97005,-1.50321 -2.97122,-1.50268 -4.51253,2.04072 -2.07735,4.77576 -1.8949,5.58516 1.38743,6.15476 0.24464,0.0425 1.71417,-1.10059 3.26562,-2.54011 z m 22.11381,-1.75466 c -1.39903,-2.89664 -2.18628,-3.43439 -5.21177,-3.56003 -3.11432,-0.12933 -3.20917,-0.19972 -0.75205,-0.55803 4.3642,-0.63642 2.61716,-2.63968 -2.86651,-3.28691 -4.54282,-0.53618 -4.62758,-0.5921 -1.1089,-0.73157 6.64385,-0.26334 2.98034,-2.09021 -4.6038,-2.29576 l -7.18967,-0.19486 7.002,-0.34218 c 9.50296,-0.4644 11.00027,-2.18992 1.90465,-2.19495 -4.70063,-0.003 -7.65095,0.47721 -8.95885,1.45697 -1.9304,1.44606 -1.93058,1.47562 -0.018,2.92381 1.06264,0.80464 3.04604,1.46359 4.40756,1.46435 1.36152,7.5e-4 2.17762,0.28978 1.81356,0.64228 -1.16719,1.13012 1.46314,3.25424 4.17622,3.37251 1.54408,0.0673 1.93729,0.29167 0.95396,0.54432 -1.56275,0.40153 -1.56409,0.61818 -0.0203,3.2919 1.49692,2.59256 2.14539,2.86293 6.88622,2.87113 l 5.23369,0.009 z m -27.98629,-1.23449 c 1.76086,-4.17608 1.40791,-4.83671 -3.05024,-5.70923 l -3.21483,-0.62918 -0.0273,4.42633 c -0.0259,4.19952 0.69139,5.29034 3.60913,5.48844 0.6284,0.0427 1.83586,-1.56669 2.68325,-3.57636 z m -23.31712,2.14117 c 0.002,-0.28937 -0.89516,-2.26345 -1.99322,-4.38684 -1.88033,-3.63611 -2.25891,-3.86085 -6.50776,-3.8632 l -4.51128,-0.002 3.25481,4.34952 c 2.67398,3.57336 3.83471,4.35663 6.5045,4.38933 1.78734,0.0219 3.25117,-0.19695 3.25295,-0.48632 z m 8.38829,-1.66211 -0.42105,-2.1931 0.98243,2.19341 c 0.70721,1.57894 1.83189,2.19388 4.01461,2.19509 2.92702,0.002 3.0331,-0.15041 3.05922,-4.38405 l 0.0271,-4.38572 -4.40629,-0.002 c -4.03161,-0.002 -4.3705,0.18406 -3.98525,2.19067 l 0.42105,2.1931 -0.98243,-2.19341 c -0.80975,-1.80785 -1.77682,-2.19385 -5.50157,-2.19591 l -4.51914,-0.002 2.15916,4.38693 c 1.98208,4.02711 2.46322,4.38709 5.86621,4.38897 3.30645,0.002 3.66154,-0.23494 3.28599,-2.19105 z m -37.3549,-3.67541 0.0301,-4.87302 -4.49992,-0.002 -4.49991,-0.002 -0.0301,4.87302 -0.0301,4.87302 4.49992,0.002 4.49991,0.002 z m 0.0601,-9.74604 0.0241,-3.89842 -4.49992,-0.003 -4.49991,-0.002 -0.0241,3.89842 -0.0241,3.89841 4.49991,0.002 4.49992,0.003 z m 17.86165,-2.18301 3.30194,-4.14026 -3.19761,-0.31713 c -2.62432,-0.26028 -4.02273,0.43788 -7.79984,3.89412 l -4.60222,4.21126 4.7447,-5.07232 c 4.27766,-4.57303 5.76878,-7.10447 4.18533,-7.10534 -0.31456,-1.8e-4 -2.57154,1.13668 -5.01551,2.52635 -3.80489,2.1635 -4.44639,2.98032 -4.46307,5.68275 -0.025,4.05695 0.4603,4.45582 5.42507,4.45856 3.66559,0.002 4.48292,-0.45371 7.42121,-4.13799 z m 9.1293,0.28752 c 1.12426,-2.12216 2.04556,-4.09523 2.04735,-4.3846 0.008,-1.34152 -6.41729,-0.35602 -7.66241,1.1752 -0.76244,0.93764 -2.31734,2.91036 -3.45533,4.38383 l -2.06907,2.67903 4.54768,0.002 c 4.29125,0.002 4.66295,-0.21506 6.59178,-3.85597 z m 8.3511,3.12584 c 0.26003,-0.40596 0.79883,-2.37924 1.19734,-4.38507 0.72201,-3.63405 0.7125,-3.64696 -2.68739,-3.64884 -3.05325,-0.002 -3.64463,0.45905 -5.62524,4.38263 l -2.21329,4.38451 4.42791,0.002 c 2.43534,10e-4 4.64064,-0.32971 4.90067,-0.73567 z m 9.67212,-3.64201 c 0.0267,-4.32027 -0.0227,-4.38575 -3.3044,-4.38756 -3.12919,-0.002 -3.39562,0.2644 -4.38824,4.38331 l -1.05679,4.38515 4.36118,0.002 4.36119,0.002 z m 5.83022,3.31901 c 1.73567,-0.58752 3.15676,-1.22971 3.15798,-1.42711 0.001,-0.19739 -0.74656,-1.90919 -1.66172,-3.804 -1.19693,-2.47822 -2.31358,-3.44548 -3.97867,-3.4464 -2.11105,-0.001 -2.3174,0.42757 -2.34482,4.87175 -0.0326,5.27616 0.12238,5.39831 4.82723,3.80576 z m 24.1567,-1.27352 c 0.001,-0.22418 0.27994,-1.10117 0.61901,-1.94888 1.01157,-2.52903 -9.70088,-2.17437 -12.10928,0.40091 -1.80462,1.92967 -1.75862,1.94824 4.8329,1.95188 3.66017,0.002 6.65599,-0.17974 6.65737,-0.40391 z m -14.97178,-4.53621 c 0.003,-0.4471 -1.58339,-2.00003 -3.52477,-3.45095 -4.794,-3.58285 -6.36226,-2.07279 -3.53178,3.4007 2.05283,3.96968 2.11294,4.00185 4.56588,2.44291 1.36711,-0.86886 2.48792,-1.94555 2.49067,-2.39266 z m -59.97519,-3.86906 0.0241,-3.89842 -4.49992,-0.002 -4.49991,-0.002 -0.0241,3.89842 -0.024,3.89841 4.49992,0.002 4.49991,0.002 z m 77.35772,1.74829 c 1.19539,-4.25134 0.85101,-4.62892 -4.22443,-4.63173 -3.79241,-0.002 -4.99803,0.37825 -5.39697,1.70259 -0.28253,0.9379 -0.84262,2.4726 -1.24465,3.41044 -0.64392,1.50215 -0.0773,1.70552 4.7593,1.70819 4.84829,0.003 5.56234,-0.25334 6.10675,-2.18949 z m -65.04542,-3.92927 c 3.60733,-2.45111 3.00064,-4.20566 -1.35884,-3.92982 -3.63067,0.22973 -3.16591,-0.16026 1.34103,-1.12529 1.51448,-0.32428 2.75742,-1.20955 2.7621,-1.96726 0.009,-1.4048 -0.99711,-1.84995 -6.73152,-2.97933 -3.17927,-0.62615 -3.24644,-0.56758 -3.26753,2.84926 -0.013,2.10007 0.47579,3.51945 1.22798,3.56618 0.9996,0.0621 0.9989,0.17581 -0.004,0.56852 -0.68915,0.26999 -1.26235,2.00477 -1.27376,3.85508 -0.0196,3.17892 0.10353,3.30109 2.23627,2.21835 1.24137,-0.63021 3.52187,-2.00527 5.06778,-3.05569 z m 50.49129,1.38238 c 0.98985,-2.71996 0.91283,-2.80423 -3.45658,-3.78248 -3.6267,-0.81197 -4.57344,-0.73936 -5.02326,0.38524 -0.30486,0.76218 -0.38694,1.50463 -0.18239,1.6499 0.20455,0.14527 1.66415,1.2236 3.24356,2.39628 3.70707,2.75243 4.20243,2.6931 5.41867,-0.64894 z m -13.86721,-0.60024 c 3.26521,-1.63876 4.09141,-3.23373 4.12054,-7.95465 0.0461,-7.47037 -5.91746,-9.53096 -25.94428,-8.96458 l -10.50167,0.29699 -0.34255,7.71053 c -0.18839,4.24079 -0.11505,8.29764 0.16299,9.01521 0.75699,1.95365 28.58266,1.86504 32.50497,-0.1035 z m 30.11026,-6.35437 0.024,-3.89842 -4.9999,-0.003 -4.99991,-0.003 -0.0241,3.89842 -0.024,3.89842 4.9999,0.003 4.99991,0.003 z m -78.98948,-1.50554 0.0271,-4.38572 -4.49991,-0.002 -4.49992,-0.003 -0.0271,4.38572 -0.0271,4.38572 4.49992,0.002 4.49991,0.002 z m 63.98976,1.49726 c 0.0174,-2.82212 -0.14089,-2.9239 -4.55142,-2.92634 -4.14336,-0.002 -4.5409,0.19825 -4.2632,2.15056 0.18806,1.32214 1.26946,2.41364 2.80205,2.82822 5.0554,1.36754 5.99345,1.04733 6.01257,-2.05244 z m -49.74095,-7.08508 c -0.60098,-0.71124 -2.9121,-2.29417 -5.13583,-3.51763 l -4.04315,-2.22446 -0.0211,3.41612 c -0.0199,3.23194 0.20777,3.46344 4.22344,4.29371 4.61271,0.95371 6.73583,0.11424 4.97662,-1.96774 z m 49.3192,0.50624 c -0.9951,-4.02553 -1.87357,-4.40757 -5.87541,-2.55517 -5.87742,2.72057 -4.87241,5.22941 2.09637,5.23326 4.34344,0.002 4.42701,-0.0568 3.77904,-2.67809 z m 14.20698,-1.94137 c -0.27935,-2.01028 -0.9895,-4.8735 -1.57812,-6.36272 l -1.07023,-2.70766 -4.2771,2.09355 c -2.35241,1.15145 -4.40713,2.20218 -4.56604,2.33495 -0.15891,0.13277 0.13487,1.2851 0.65284,2.56074 0.51796,1.27563 1.1845,3.08697 1.48119,4.02519 0.41239,1.3041 1.63765,1.70647 5.2024,1.70844 l 4.66297,0.003 z m -77.71786,-2.23579 0.024,-3.89842 -4.49991,-0.003 -4.49992,-0.002 -0.0241,3.89842 -0.024,3.89842 4.49991,0.002 4.49991,0.002 z m 61.00362,-1.98929 c 0.006,-0.30858 -1.04186,-1.53129 -2.3289,-2.71712 l -2.34006,-2.15606 -2.75324,3.48906 c -2.19324,2.77938 -2.51401,3.77218 -1.57706,4.88104 1.00604,1.19063 1.74122,1.07896 5.08214,-0.77193 2.14828,-1.19016 3.91098,-2.4164 3.91712,-2.72499 z m -46.00966,2.93043 c 0.003,-0.559 -2.10067,-3.30125 -4.67581,-6.09389 l -4.68208,-5.07752 4.47569,4.14455 c 2.9828,2.76212 5.37345,4.14506 7.16718,4.14605 l 2.69149,0.002 -3.17726,-4.4328 c -2.97312,-4.14799 -3.43597,-4.41438 -7.2037,-4.14607 -3.846,0.27389 -4.04105,0.44594 -4.35247,3.83922 -0.30061,3.27545 0.008,3.74304 3.96294,5.99601 4.90717,2.79571 5.78526,3.04167 5.79402,1.62296 z m 37.52332,-4.4057 c 2.92553,-3.70739 2.64115,-4.75166 -1.57088,-5.76847 -2.40234,-0.57993 -2.69302,-0.30217 -3.72189,3.55637 -0.84569,3.17161 -0.82647,4.36566 0.0794,4.92951 1.90026,1.18285 2.30017,0.9744 5.21341,-2.71741 z m -6.54218,-1.13944 c 1.63146,-5.60327 1.43875,-6.0905 -2.40979,-6.09263 l -3.49993,-0.002 -0.0301,4.87303 c -0.0279,4.52325 0.146,4.87312 2.42288,4.87437 1.98273,0.001 2.65691,-0.69914 3.51691,-3.65283 z m -21.58478,-0.98652 c -2.03823,-4.90471 -2.55169,-5.31135 -6.24722,-4.94749 l -3.17784,0.31289 3.10969,4.1438 c 2.13356,2.84307 3.85125,4.14421 5.47211,4.14511 2.33733,0.001 2.34629,-0.0375 0.84326,-3.65431 z m 7.17713,0.004 c -0.84838,-4.65232 -1.56628,-5.33129 -5.23049,-4.94693 l -2.98382,0.313 1.78818,4.14307 c 1.46246,3.38839 2.2713,4.14334 4.44043,4.14454 2.52067,0.001 2.61918,-0.17987 1.9857,-3.65368 z m 7.47088,-0.72683 0.0271,-4.38572 -3.86119,-0.002 -3.86119,-0.002 1.00267,4.38629 c 0.89824,3.92951 1.29752,4.38645 3.83413,4.38785 2.68916,10e-4 2.83282,-0.21886 2.85852,-4.38416 z m 31.29383,0.86794 c 1.76554,-0.87125 3.37476,-1.72444 3.57605,-1.89598 0.69056,-0.58849 -3.98318,-7.24039 -6.1148,-8.70289 -2.8946,-1.98597 -3.08099,-1.92947 -6.05098,1.83426 l -2.60196,3.29735 3.1912,3.51997 c 3.66916,4.04717 3.72008,4.05957 8.00049,1.94729 z m -70.27804,-3.326 0.024,-3.89841 -4.49991,-0.003 -4.49992,-0.002 -0.024,3.89841 -0.0241,3.89842 4.49991,0.002 4.49992,0.003 z m 61.4834,-6.49898 c 1.88765,-2.68265 2.22432,-3.80334 1.31299,-4.37062 -2.20655,-1.37353 -10.82229,-3.9322209 -11.38996,-3.3825708 -0.30494,0.29526 -0.95259,1.9842308 -1.43922,3.7532808 -0.79943,2.90615 -0.83479,2.81689 -0.36655,-0.92535 l 0.51824,-4.1418005 -5.01173,-0.003 -5.01173,-0.003 -0.0271,4.3857205 c -0.0237,3.84511 0.25015,4.40805 2.22179,4.56688 5.47563,0.44108 6.3579,0.57339 8.24226,1.23601 1.0976,0.38597 2.89332,1.07451 3.99049,1.5301 3.42173,1.42083 4.34601,1.06945 6.96048,-2.64612 z m -61.44845,0.8337 c 0.003,-0.43575 -1.37056,-2.08116 -3.05167,-3.65647 -2.97259,-2.78552 -3.09604,-2.81225 -4.49392,-0.97315 -0.79055,1.04007 -1.44226,2.68436 -1.44824,3.65398 -0.009,1.43966 0.81426,1.76339 4.48903,1.76542 2.47496,0.001 4.50212,-0.35404 4.5048,-0.78978 z m 2.03417,-5.54156 c 0.0221,-3.5815209 -0.30463,-4.3859105 -1.78178,-4.3867305 -0.99486,-5.4e-4 -2.68619,0.6237996 -3.7585,1.3874497 -1.89611,1.3502998 -1.8695,1.4707898 0.96888,4.3862708 1.6052,1.64881 3.28435,2.99803 3.73144,2.99828 0.44709,2.4e-4 0.82507,-1.97313 0.83996,-4.38527 z m 9.99981,0.005 0.0271,-4.3857305 -4.49992,-0.002 -4.49991,-0.002 -0.0271,4.3857305 -0.0271,4.38572 4.49991,0.002 4.49992,0.002 z m 8.99982,0.005 0.0271,-4.3857305 -3.99993,-0.002 -3.99992,-0.002 -0.0271,4.3857305 -0.0271,4.38572 3.99992,0.002 3.99992,0.002 z m 8.99983,0.005 0.0271,-4.3857305 -3.99992,-0.002 -3.99992,-0.002 -0.0271,4.3857305 -0.0271,4.38572 3.99992,0.002 3.99992,0.002 z m 8.99982,0.005 0.0271,-4.3857305 -3.99992,-0.002 -3.99992,-0.002 -0.0271,4.3857305 -0.0271,4.38572 3.99992,0.002 3.99992,0.002 z M 293.73519,126.89921 c -22.76775,-7.21784 -36.11164,-26.37341 -37.78816,-54.246074 -1.92963,-32.08066 14.57876,-57.78859 41.61654,-64.8079809 7.79941,-2.0248296 24.99902,-2.0094296 32.84299,0.0294 14.96872,3.8907409 28.47888,15.4831509 28.42393,24.3891709 -0.0301,4.88723 -3.08794,9.37966 -7.74573,11.37984 -6.21581,2.66924 -10.2103,1.65055 -16.84538,-4.296 -6.14067,-5.50345 -11.7428,-7.59121 -20.38246,-7.59598 -12.59741,-0.007 -22.44215,5.78055 -27.80253,16.3445 -2.66336,5.2488 -2.83045,6.31987 -2.92104,18.72441 -0.0574,7.85662 0.40289,14.78975 1.14249,17.20962 2.07037,6.77404 7.09488,13.02446 13.13538,16.340244 5.01706,2.75398 6.24368,3.00595 14.48142,2.97464 10.65044,-0.0405 14.77241,-1.70601 21.66594,-8.754384 7.24437,-7.40711 11.82042,-8.80404 18.57118,-5.66921 3.57041,1.65798 7.30587,7.33611 7.28283,11.070373 -0.0595,9.647581 -16.66304,23.676401 -32.87407,27.776311 -8.8666,2.24244 -24.2766,1.83427 -32.80333,-0.86888 z m 20.33717,-3.29072 -0.27622,-4.62954 -4.74807,-0.29967 c -4.34726,-0.27438 -4.76075,-0.11006 -4.89812,1.94651 -0.1498,2.24258 -0.15071,2.24271 -0.56626,0.0812 -0.2913,-1.51517 -1.52019,-2.46494 -4.09423,-3.16431 -5.13565,-1.39535 -5.10857,-1.40511 -6.78203,2.44213 -1.80659,4.15326 -1.40965,4.9736 2.80845,5.80408 1.779,0.35026 4.0207,0.85337 4.98155,1.11802 1.28098,0.35282 1.78705,-0.12128 1.89712,-1.77728 0.14642,-2.20283 0.16027,-2.20589 0.56239,-0.12431 0.41168,2.13112 2.11963,2.74469 8.58781,3.08513 2.73885,0.14416 2.79743,0.0403 2.52761,-4.48196 z m 9.92626,3.04598 c 1.23947,-0.32253 2.29353,-1.30275 2.34235,-2.17826 0.0564,-1.01042 0.27025,-1.14678 0.58563,-0.37332 0.27327,0.6702 1.1567,1.2189 1.96316,1.21935 1.26237,7e-4 7.08116,-2.47051 8.29932,-3.52467 0.55663,-0.48169 -3.1487,-7.19317 -3.97153,-7.19363 -0.35775,-1.9e-4 -2.29088,0.66508 -4.29584,1.4784 -3.19057,1.29426 -3.58254,1.81084 -3.14164,4.14035 l 0.50374,2.66159 -1.09452,-2.74559 c -0.72204,-1.81123 -1.59808,-2.55798 -2.57419,-2.19429 -0.81382,0.30321 -2.79284,0.55058 -4.39782,0.54969 -2.79191,-0.002 -2.91933,0.18814 -2.94522,4.38411 -0.0265,4.30098 0.0357,4.3855 3.22296,4.37421 1.78751,-0.006 4.26413,-0.27541 5.5036,-0.59794 z m -32.22076,-6.8321 c 0.84435,-1.94111 1.53593,-3.6517 1.53685,-3.80131 0.002,-0.30177 -6.89693,-4.36679 -7.41141,-4.36707 -0.17828,-10e-5 -1.51881,1.51376 -2.97896,3.36414 l -2.65481,3.36432 3.73216,2.48392 c 4.9329,3.28307 5.95359,3.14604 7.77617,-1.044 z m 54.29252,-3.54454 c 1.52314,-1.62451 1.43415,-1.94011 -1.30469,-4.62712 l -2.93932,-2.8837 -3.70552,2.55662 -3.70551,2.55662 2.16057,3.69865 2.16057,3.69865 2.84964,-1.62814 c 1.56729,-0.89548 3.58521,-2.41269 4.48426,-3.37158 z m -63.93488,-1.66264 c 2.77577,-3.6281 2.76043,-4.0701 -0.2371,-6.83193 l -2.45334,-2.26042 -3.54881,2.62412 c -1.95185,1.44327 -3.55119,3.0086 -3.55409,3.4785 -0.005,0.85612 5.96922,5.84085 7.02567,5.86176 0.30902,0.006 1.55448,-1.2863 2.76767,-2.87203 z m 39.90908,-1.36228 c 0.81649,-0.79056 -0.61585,-7.28032 -1.75958,-7.97245 -0.55787,-0.33759 -2.11537,-0.34548 -3.46111,-0.0175 -2.00349,0.48824 -2.48133,1.25507 -2.63734,4.23238 l -0.19054,3.6361 -0.3697,-3.65498 c -0.34651,-3.42562 -0.58138,-3.6551 -3.74285,-3.65685 -2.91216,-0.002 -3.43234,0.3644 -3.80627,2.67807 -0.41674,2.57858 -0.43807,2.56414 -0.56406,-0.38196 -0.10404,-2.43305 -0.66778,-3.19371 -2.74493,-3.70372 -3.0852,-0.75754 -2.76511,-1.0015 -4.76413,3.63105 -1.57714,3.65488 -1.56802,3.70023 0.93142,4.6299 3.4398,1.27945 5.38645,1.1799 5.43183,-0.27778 0.0209,-0.67003 0.50813,-0.42183 1.08282,0.55156 0.9064,1.5352 2.04036,1.70681 8.55467,1.29459 4.13037,-0.26136 7.74827,-0.70614 8.03977,-0.98838 z m 29.86528,-2.60435 2.95549,-2.98948 -3.4818,-2.94052 c -1.915,-1.61729 -2.8088,-2.6187 -1.98624,-2.22535 0.82256,0.39335 2.48887,1.59147 3.70292,2.6625 l 2.20735,1.94732 1.04688,-2.64126 c 1.59719,-4.02971 1.35258,-4.45054 -2.6908,-4.629481 l -3.74892,-0.1659 3.75229,-0.380231 c 2.06376,-0.20913 3.75361,-0.59482 3.75523,-0.857101 0.008,-1.244481 -3.11749,-6.229441 -3.90562,-6.229881 -1.21617,-6.7e-4 -5.47741,6.773932 -4.72508,7.512023 0.33086,0.324601 -0.95123,2.422761 -2.8491,4.662591 l -3.45065,4.07242 2.64565,2.59558 c 1.45511,1.42758 2.90919,2.59574 3.23128,2.59591 0.32209,1.8e-4 1.9156,-1.34494 3.54112,-2.98914 z m -18.85515,-1.48329 c 2.31711,-1.30849 4.46664,-2.77518 4.77672,-3.25929 0.57234,-0.89356 -4.03857,-6.921292 -5.25145,-6.865112 -0.36371,0.0168 -1.53677,0.672651 -2.6068,1.457342 -1.86324,1.36637 -1.87508,1.57254 -0.28008,4.87495 2.301,4.76415 2.00694,5.66308 -0.38867,1.18811 -2.06118,-3.85028 -2.90989,-4.24437 -5.85101,-2.71681 -1.58804,0.82479 -1.67935,1.42927 -0.7439,4.92429 0.96451,3.60355 1.30829,3.92637 3.59931,3.37984 1.39312,-0.33233 4.42877,-1.67482 6.74588,-2.98332 z m -56.76214,-7.41385 c -1.10472,-1.52555 -2.26233,-2.773882 -2.57245,-2.774052 -0.94526,-5.3e-4 -7.3246,4.014972 -7.32829,4.612822 -0.002,0.30771 1.16413,2.0639 2.59117,3.90266 l 2.59462,3.34318 3.36177,-3.15542 3.36178,-3.15543 z m 20.97611,5.86498 c 1.50869,-4.14566 1.44939,-4.48929 -0.99578,-5.77017 -1.8293,-0.95826 -2.44709,-0.72784 -4.47427,1.6688 -2.84925,3.36853 -2.94098,4.13817 -0.69257,5.81052 2.89547,2.15363 4.96584,1.57943 6.16262,-1.70915 z m -6.4783,-4.00023 c 2.54024,-3.13729 2.54595,-3.18332 0.62842,-5.065192 -1.91772,-1.882072 -1.95566,-1.881202 -4.22209,0.0963 -1.25784,1.097511 -2.96391,2.309662 -3.79126,2.693672 -0.82736,0.38402 0.001,-0.59767 1.84173,-2.181532 3.01658,-2.596232 3.21742,-3.082462 2.03989,-4.938662 -0.71837,-1.1324 -1.53538,-2.05739 -1.81559,-2.05554 -1.08809,0.007 -7.03307,3.90284 -7.03131,4.60753 0.003,1.107931 7.94998,10.008444 8.93697,10.008984 0.46734,2.6e-4 2.00329,-1.42426 3.41324,-3.16559 z m 50.77966,-1.34126 c 2.50044,-2.19213 2.25994,-3.344312 -1.26901,-6.079604 l -3.01018,-2.33319 -2.13706,2.06921 -2.13707,2.069211 2.87317,2.942883 c 3.35617,3.43762 3.29433,3.42313 5.68015,1.33149 z m -71.71236,-2.421341 c 1.96334,-1.123931 3.5707,-2.204593 3.57192,-2.401483 0.001,-0.19688 -0.71922,-1.85166 -1.60097,-3.67729 l -1.60318,-3.31933 -4.13562,1.51802 c -2.27459,0.83491 -4.28009,1.61186 -4.45666,1.72656 -0.41635,0.27044 3.67614,8.196484 4.23228,8.196794 0.23238,1.3e-4 2.02888,-0.91935 3.99223,-2.043271 z m 75.702,-4.491303 0.13485,-2.6801 0.6232,2.92271 0.62321,2.922721 2.94307,-3.729621 c 2.4194,-3.066 2.68966,-3.88665 1.51887,-4.61217 -2.45325,-1.52024 -5.91255,-1.06822 -6.05045,0.79061 -0.1205,1.62428 -0.1478,1.62426 -0.57331,-3.2e-4 -0.5469,-2.08802 -0.63466,-2.09017 -4.57603,-0.11206 l -3.17658,1.59427 3.4114,2.79159 c 4.2382,3.468172 4.95214,3.483832 5.12177,0.11237 z m -63.67362,-2.31658 c 3.15948,-1.80868 3.4325,-2.27063 2.44721,-4.14073 -0.60995,-1.15772 -1.23844,-2.25492 -1.39663,-2.43822 -0.72289,-0.83766 -7.45368,2.33124 -7.46097,3.51268 -0.009,1.41235 1.76034,5.10146 2.44651,5.10184 0.22421,1.2e-4 2.00795,-0.91589 3.96388,-2.03557 z m -15.4598,-2.00065 c 3.13674,-1.06177 3.23809,-1.25713 2.63473,-5.07865 -0.34513,-2.18592 -0.72453,-4.06959 -0.84312,-4.18594 -0.11859,-0.11634 -2.28252,0.21642 -4.80875,0.73948 l -4.59314,0.951 0.99175,4.33852 c 1.06578,4.66238 1.61304,4.92992 6.61853,3.23559 z m 15.82774,-6.11093 c 0.19367,-0.18752 0.0562,-1.51857 -0.30554,-2.95789 -0.61829,-2.46024 -0.90491,-2.57734 -4.78653,-1.95552 -2.27087,0.36378 -4.22967,0.74556 -4.3529,0.84841 -0.12322,0.10284 0.22423,1.80478 0.77212,3.78208 l 0.99616,3.59509 3.66228,-1.48561 c 2.01425,-0.81708 3.82074,-1.63904 4.01441,-1.82656 z m -15.47129,-4.17634 c 1.54048,-0.85238 0.80995,-7.01727 -0.95049,-8.0211 -0.96779,-0.55185 -1.18749,-1.00725 -0.49368,-1.02331 0.7867,-0.0182 1.25907,-1.47418 1.27421,-3.92737 l 0.024,-3.89842 -4.49991,-0.002 -4.49992,-0.002 -0.0271,4.38572 c -0.0263,4.26627 0.0614,4.39002 3.22192,4.54349 l 3.24898,0.15777 -3.36309,0.39927 c -3.15866,0.375 -3.32709,0.58018 -2.77079,3.37545 0.32577,1.6369 0.58846,3.59909 0.58377,4.36042 -0.007,1.06707 0.85161,1.23362 3.74545,0.72685 2.0647,-0.36157 4.09265,-0.84478 4.50656,-1.0738 z m 11.51145,-1.88432 c 1.67635,-0.43621 2.25802,-1.3062 2.27092,-3.39656 0.0165,-2.6808 -0.18978,-2.81026 -4.48258,-2.81263 -4.66959,-0.003 -5.02812,0.423 -3.8982,4.62723 0.60117,2.23686 2.10089,2.62517 6.10986,1.58196 z m 2.14474,-10.48677 c 0.19735,-1.60052 -0.22495,-3.17321 -0.97752,-3.64039 -0.99495,-0.61764 -1.01361,-0.82606 -0.0749,-0.83675 0.75111,-0.009 1.2582,-1.33246 1.27045,-3.31688 0.0187,-3.02803 -0.28246,-3.35826 -3.62149,-3.9713 -2.55069,-0.46831 -3.89551,-0.28254 -4.48844,0.62001 -1.28723,1.95941 -1.06486,5.66438 0.34523,5.75199 0.9996,0.0621 0.9989,0.17581 -0.004,0.56852 -0.7074,0.27714 -1.26342,2.17745 -1.27691,4.36413 l -0.0239,3.87324 4.25177,-0.29734 c 3.85978,-0.26993 4.2838,-0.55714 4.59922,-3.11523 z m -12.94849,-9.26947 c 0.20724,-1.9899 -0.1812,-3.63517 -0.97452,-4.1277 -1.00269,-0.62251 -0.89931,-0.82231 0.43095,-0.83292 0.96253,-0.008 1.75243,-0.39771 1.75532,-0.86674 0.003,-0.46902 0.29486,-2.22267 0.64881,-3.89699 0.59203,-2.80047 0.35055,-3.16399 -3.01595,-4.54023 -2.01273,-0.82281 -4.0738,-1.24762 -4.58015,-0.94403 -0.77528,0.46484 -1.73695,3.72234 -2.30045,7.79241 -0.0742,0.53599 1.18762,1.28481 2.80407,1.66404 l 2.93901,0.68952 -3.16054,-0.26463 c -2.78309,-0.23303 -3.23283,0.0774 -3.76598,2.59933 -1.32269,6.2568 -1.06495,6.65256 4.12309,6.3311 4.60152,-0.28512 4.76264,-0.39903 5.09634,-3.60316 z m 14.5755,-5.21084 c 0.40788,-1.45519 0.034,-2.63645 -1.11168,-3.51255 -1.58255,-1.21015 -1.5496,-1.26869 0.39598,-0.7034 1.63142,0.47401 2.2584,0.12047 2.71115,-1.52875 0.7385,-2.69008 0.28078,-3.4103 -3.3281,-5.23685 -2.81103,-1.42272 -2.94129,-1.38317 -4.40143,1.33633 -1.4156,2.63656 -1.37446,2.86821 0.69511,3.91349 2.19651,1.1094 2.19656,1.11025 0.0373,0.57776 -2.37983,-0.58686 -2.75515,-0.22169 -3.71972,3.61925 -0.54718,2.17888 -0.28312,2.68208 1.59298,3.03564 5.17889,0.97596 6.51295,0.69507 7.12846,-1.50092 z m -9.943,-11.70079 c 1.35532,-3.11539 1.31944,-3.20221 -2.21405,-5.35657 -1.97544,-1.20443 -3.88106,-2.19227 -4.23471,-2.19521 -0.35365,-0.003 -1.33616,1.63892 -2.18336,3.64858 l -1.54037,3.65393 3.65074,1.6353 c 4.94509,2.21508 4.95613,2.21274 6.52175,-1.38603 z m 15.38923,0.29001 c 1.08722,-1.67997 0.81368,-2.22668 -2.26549,-4.52794 -3.39452,-2.53693 -3.54638,-2.56061 -4.94757,-0.77155 -2.07593,2.6506 -1.86406,3.59019 1.22057,5.41287 3.65516,2.1598 4.53209,2.14321 5.99249,-0.11338 z m 57.27652,-3.41735 c 0.0149,-2.41215 -0.33874,-4.38592 -0.78583,-4.38617 -0.44709,-2.5e-4 -2.04725,1.24674 -3.55592,2.77108 -2.8136,2.84284 -2.55001,3.90275 1.31904,5.30404 2.76147,1.00015 2.99554,0.71448 3.02271,-3.68895 z m 5.29541,3.28204 c 1.20508,-0.60798 2.38425,-1.26977 2.62039,-1.47064 0.56909,-0.48409 -5.03151,-6.19554 -6.07586,-6.19612 -0.44709,-2.5e-4 -0.82507,1.97312 -0.83996,4.38527 -0.0284,4.5979 0.65356,5.11886 4.29543,3.28149 z m -58.87102,-4.68192 c 1.65638,-1.77114 1.60697,-1.99876 -1.07299,-4.94333 l -2.80931,-3.08671 -2.37791,2.44995 -2.37792,2.44994 2.8561,2.46226 c 3.46077,2.98357 3.60124,2.99979 5.78203,0.66789 z m 64.54885,0.008 c 1.70806,-3.07505 1.24143,-3.95309 -2.18937,-4.11968 l -3.24897,-0.15777 3.25236,-0.39129 c 3.30788,-0.39796 4.06498,-1.96712 2.67721,-5.54873 -0.8907,-2.29873 -2.67399,-1.88204 -5.90143,1.37894 -1.88512,1.90471 -2.39182,2.9277 -1.4552,2.93795 1.15082,0.0126 1.17447,0.1772 0.11874,0.82663 -1.02063,0.62785 -0.72378,1.50474 1.31491,3.88424 3.05887,3.57021 3.99553,3.77537 5.43175,1.18971 z m -14.62975,-1.8418 2.71455,-2.74275 -2.50359,-2.30673 c -2.45508,-2.26204 -2.53306,-2.27028 -4.02477,-0.42544 -3.18405,3.93779 -3.69738,5.35736 -2.46479,6.8161 1.73476,2.05306 3.23684,1.7322 6.2786,-1.34118 z m -64.82711,-0.82498 c 1.7061,-2.51375 1.68186,-2.61042 -1.40563,-5.60477 l -3.14168,-3.04691 -2.46158,2.73316 c -3.15153,3.49924 -3.10423,4.68761 0.26582,6.67895 3.82881,2.26241 4.76294,2.15707 6.74307,-0.76043 z m 21.31402,-1.906 c 0.73512,-0.3877 -3.23863,-7.217 -4.18364,-7.19001 -1.41775,0.0405 -4.57957,2.40653 -4.58589,3.43171 -0.003,0.44761 1.18872,2.03655 2.64774,3.53098 2.17929,2.23218 2.93613,2.50877 4.24037,1.54971 0.87319,-0.64209 1.71983,-1.23716 1.88142,-1.32239 z m 37.81183,-1.87061 c 2.63297,-3.33665 2.65858,-3.48589 0.83075,-4.84159 -2.96639,-2.20016 -4.24038,-1.73418 -5.93974,2.17259 -1.46267,3.36262 -1.45162,3.72747 0.14764,4.87312 2.2222,1.5919 1.8275,1.76725 4.96135,-2.20412 z m -33.06552,-3.28799 c -0.84049,-4.61288 -1.6076,-5.25534 -4.84705,-4.05949 l -2.69653,0.99544 1.97973,3.82835 c 1.58701,3.0689 2.39885,3.72193 4.09245,3.29189 1.82733,-0.46399 2.02609,-1.0119 1.4714,-4.05619 z m 27.07284,0.35109 c 1.6838,-3.87099 1.40736,-4.84457 -1.59356,-5.61228 -1.4944,-0.3823 -2.32136,0.0606 -2.96194,1.58629 l -0.8887,2.11667 -0.0505,-2.08862 c -0.0494,-2.04283 -1.78661,-3.27274 -4.6249,-3.2743 -0.90052,-5e-4 -1.48373,1.15536 -1.59776,3.16659 l -0.17958,3.16737 -0.38377,-3.16768 c -0.34929,-2.88305 -0.69257,-3.16786 -3.82035,-3.16959 -3.04601,-0.002 -3.45548,0.30269 -3.60294,2.67818 l -0.16637,2.68008 -0.39664,-2.64378 c -0.35923,-2.39436 -0.69768,-2.58823 -3.58744,-2.05486 -1.75493,0.32391 -3.28068,0.64968 -3.39055,0.72393 -0.10987,0.0743 0.27057,1.98504 0.84543,4.24621 0.69507,2.73405 1.59067,4.10651 2.67361,4.09718 2.09494,-0.018 3.68675,-1.0654 4.41734,-2.90645 0.46199,-1.16421 0.59392,-1.11456 0.64842,0.24401 0.0798,1.98844 5.05411,2.46731 5.09116,0.49011 0.016,-0.85614 0.23921,-0.89506 0.7508,-0.13094 0.40038,0.59801 1.74148,1.39672 2.98022,1.7749 1.76884,0.54002 2.47452,0.20254 3.28785,-1.57239 0.99128,-2.16324 1.01698,-2.16813 0.60033,-0.11409 -0.42291,2.08487 0.47394,2.97936 3.14724,3.139 0.71529,0.0427 1.97646,-1.47628 2.8026,-3.37554 z m -47.6131,0.0485 2.33272,-2.40338 -2.73709,-3.52677 -2.7371,-3.52677 -3.46333,3.24784 -3.46334,3.24785 3.05782,2.68186 c 3.73699,3.27753 4.08678,3.29147 7.01032,0.27937 z m 69.38005,-1.29515 2.73362,-2.76203 -4.84483,-4.44444 c -2.66465,-2.44444 -6.25221,-5.15675 -7.97235,-6.02736 l -3.12753,-1.58291 -1.54171,3.54432 c -2.01179,4.62502 -2.04769,4.48332 1.65967,6.54969 l 3.19629,1.7815 2.93007,-3.24003 2.93008,-3.24003 -2.57586,3.49956 -2.57586,3.49956 2.64177,2.59177 c 1.45297,1.42548 2.9053,2.59192 3.22739,2.5921 0.3221,1.8e-4 1.81576,-1.24259 3.31925,-2.7617 z m -58.67924,-5.70922 c 5.43041,-2.605 7.30431,-3.97992 6.9684,-5.11284 -0.25271,-0.8523 -0.73726,-2.71642 -1.07679,-4.14249 l -0.61731,-2.5928608 -4.42313,1.4634308 c -4.75566,1.57345 -5.14218,2.37919 -2.95209,6.15404 0.77774,1.34052 1.40698,2.87587 1.3983,3.4119 -0.009,0.53603 -1.00527,-0.88934 -2.21467,-3.16749 l -2.19891,-4.14209 -3.74549,2.46838 c -2.06001,1.35761 -3.74698,2.71213 -3.74882,3.01005 -0.004,0.61591 4.2716,6.07628 4.82245,6.15905 0.1981,0.0298 3.70273,-1.54932 7.78806,-3.50908 z m 43.80797,-7.69277 c 0.54416,-1.69536 0.0425,-2.20751 -3.08056,-3.14515 -4.32956,-1.2998508 -4.89617,-0.9310308 -5.81353,3.78417 -0.64495,3.31506 -0.51159,3.5396 2.64467,4.45301 3.52113,1.019 4.55954,0.17291 6.24942,-5.09203 z m -27.64832,1.70351 c 1.13529,-1.37657 1.25848,-1.37753 1.25004,-0.01 -0.008,1.24064 0.72476,1.38704 4.01652,0.80283 2.21423,-0.39297 4.26539,-0.33295 4.55812,0.13338 0.29273,0.46633 2.06026,0.84872 3.92785,0.84975 3.03922,0.002 3.46164,-0.33053 4.02484,-3.16525 0.97091,-4.8868608 0.85372,-5.0796808 -3.44672,-5.6714209 l -4.03382,-0.55506 -0.18956,3.4765509 -0.18955,3.47655 -0.3697,-3.65499 c -0.36589,-3.6172905 -0.4155,-3.6550105 -4.80926,-3.6574405 -4.31133,-0.002 -4.44444,0.089 -4.60892,3.1649305 -0.15764,2.94804 -0.19708,2.98176 -0.56942,0.48699 -0.34055,-2.2818008 -0.87346,-2.6784309 -3.58365,-2.6672209 -5.17544,0.0214 -6.01798,1.0221401 -4.76538,5.6601709 1.03592,3.83569 1.2215,3.98364 4.30589,3.43274 1.77282,-0.31664 3.79005,-1.26289 4.48272,-2.10277 z"
       id="path1" />
  </g>
</svg>
