<?xml version="1.0" encoding="UTF-8" standalone="no"?>
<!-- Created with Inkscape (http://www.inkscape.org/) -->

<svg
   version="1.1"
   id="svg1"
   width="464"
   height="136"
   viewBox="0 0 464 136"
   sodipodi:docname="mapping-cylinder.png"
   inkscape:version="1.4.3 (0d15f75042, 2025-12-25)"
   xmlns:inkscape="http://www.inkscape.org/namespaces/inkscape"
   xmlns:sodipodi="http://sodipodi.sourceforge.net/DTD/sodipodi-0.dtd"
   xmlns="http://www.w3.org/2000/svg"
   xmlns:svg="http://www.w3.org/2000/svg"
   xmlns:ns3="http://www.iki.fi/pav/software/textext/">
  <sodipodi:namedview
     id="namedview1"
     pagecolor="#ffffff"
     bordercolor="#000000"
     borderopacity="0.25"
     inkscape:showpageshadow="2"
     inkscape:pageopacity="0.0"
     inkscape:pagecheckerboard="0"
     inkscape:deskcolor="#d1d1d1"
     inkscape:zoom="3.8275862"
     inkscape:cx="317.43243"
     inkscape:cy="39.711712"
     inkscape:window-width="1920"
     inkscape:window-height="1008"
     inkscape:window-x="0"
     inkscape:window-y="0"
     inkscape:window-maximized="1"
     inkscape:current-layer="g1" />
  <defs
     id="defs1" />
  <g
     inkscape:groupmode="layer"
     inkscape:label="Image"
     id="g1">
    <path
       id="path2"
       style="fill:#000000"
       d="m 114.44922,11.734375 c -9.71488,0.02375 -19.42741,0.613111 -24.82422,1.759766 -9.14831,1.943738 -17.990305,5.842321 -18.984375,8.371093 -0.37273,0.948142 -0.633831,12.74961 -0.582031,26.22461 l 0.09375,24.5 2.521484,2.232422 c 2.87494,2.545112 13.114742,5.883899 21.951172,7.158203 3.3,0.475895 12.10864,0.921211 19.57422,0.988281 20.94649,0.188175 37.43402,-3.248745 43.66406,-9.101562 2.22856,-2.09364 2.26172,-2.486276 2.26172,-26.228516 0,-19.495775 -0.27797,-24.502201 -1.45703,-26.185547 -1.94825,-2.781521 -9.99636,-6.136661 -19.37891,-8.080078 -5.40837,-1.120238 -15.12497,-1.662424 -24.83984,-1.638672 z m -0.0176,1.853516 c 9.94825,0.0053 19.9703,0.61886 25.69336,1.83789 8.77812,1.86977 15.55109,4.925713 17.35156,7.830078 2.27712,3.673267 -5.08985,7.914335 -18.10742,10.425782 -15.96413,3.079917 -40.060443,2.572872 -54.496093,-1.148438 -18.4878,-4.765898 -16.550403,-12.470303 4.310547,-17.134765 5.42519,-1.213064 15.299796,-1.815873 25.248046,-1.810547 z M 326.625,19.542969 c -9.76307,0 -19.52598,0.626047 -25.38281,1.875 -9.75538,2.080307 -16.69245,5.083109 -18.62305,8.064453 -1.1708,1.808016 -0.88134,6.977096 2.03906,36.466797 1.92043,19.392117 3.90478,34.964551 4.55664,35.750001 1.36279,1.64205 21.91016,2.04683 21.91016,0.43164 0,-0.56259 -4.10054,-0.87297 -9.91016,-0.75 -5.45115,0.11538 -10.24558,-0.12164 -10.65234,-0.52539 -0.7098,-0.70454 -6.32299,-53.798185 -6.40039,-60.539064 -0.0367,-3.193474 0.0191,-3.23551 2.27734,-1.755859 12.35256,8.093711 60.60759,8.743742 77.43555,1.042969 3.71671,-1.700834 5.25,-2.025693 5.25,-1.111328 0,0.710366 -1.14685,14.298607 -2.54883,30.195312 -1.40198,15.896706 -2.60483,29.802344 -2.67383,30.902344 -0.21206,3.379926 -2.82983,5.435656 -9.57031,7.517576 -8.03579,2.48201 -26.7924,4.17819 -34.45508,3.11524 -3.16205,-0.43864 -5.9408,-0.98767 -6.17383,-1.22071 -0.34836,-0.34836 3.57435,-30.081069 4.40821,-33.412106 0.1377,-0.55 0.19079,-3.25 0.11719,-6 -0.16703,-6.244693 -2.06471,-4.192591 -2.0879,2.257812 -0.008,2.341766 -0.9435,10.891767 -2.07812,19 -1.13462,8.108234 -2.14712,15.613574 -2.25,16.679684 -0.11344,1.17554 0.79638,2.44985 2.3125,3.23633 3.00466,1.55866 21.69813,1.77376 30.39453,0.34961 8.34681,-1.3669 15.70835,-3.70785 18.49609,-5.88086 2.31449,-1.80413 2.47989,-2.89052 5.23829,-34.251951 3.56513,-40.533544 3.55763,-40.358485 2.0332,-42.195313 -2.09857,-2.528627 -9.41514,-5.47693 -18.2793,-7.367187 -5.85683,-1.248953 -15.61974,-1.875 -25.38281,-1.875 z m 1.89844,1.666015 c 22.00789,0.404988 42.65809,5.128696 40.84179,12.074219 -0.71717,2.74246 -9.11733,6.503961 -18.39648,8.240235 -25.55606,4.781933 -62.57044,0.549155 -66.96289,-7.658204 -1.4422,-2.694778 1.92074,-6.171787 7.99609,-8.267578 9.62284,-3.319555 23.31675,-4.631665 36.52149,-4.388672 z m 79.42383,1.345704 c -0.42008,0.02634 -0.12666,0.663877 0.92578,2.269531 1.45451,2.219062 1.84279,5.836423 2.28125,21.220703 0.34495,12.10334 0.96501,19.326461 1.78515,20.794922 1.00618,1.802318 1.00588,2.697683 0.006,4.5 -0.81557,1.466601 -1.44712,8.925524 -1.8125,21.423828 -0.47439,16.226768 -0.82473,19.468478 -2.2832,21.080078 -0.94788,1.04739 -1.72461,2.30546 -1.72461,2.79687 0,0.49143 1.00451,-0.10998 2.23242,-1.33789 2.11054,-2.11053 2.2652,-3.29196 2.81446,-21.613277 0.48842,-16.2935 0.86652,-19.817953 2.37304,-22.117187 1.352,-2.063417 1.49279,-2.918622 0.57422,-3.486328 -1.97667,-1.221645 -2.90278,-8.587492 -2.95508,-23.496094 -0.0514,-14.65357 -1.07057,-20.915603 -3.56054,-21.871094 -0.29689,-0.113925 -0.51623,-0.172844 -0.65625,-0.164062 z m -249.78321,6.474609 -0.26953,21.761719 -0.26953,21.761718 -4.25781,2.347657 c -2.34245,1.291752 -8.41745,3.207024 -13.5,4.255859 -6.98014,1.440421 -13.15669,1.888328 -25.24219,1.830078 C 92.824534,80.881259 80.161139,78.516462 74.099609,73.416016 70.716719,70.569501 70.33944,68.421665 72.875,66.447266 c 0.84595,-0.658726 1.26277,-0.994944 1.25,-1.087891 v -0.002 l -0.002,-0.002 v -0.002 h -0.002 v -0.002 l -0.002,-0.002 -0.002,-0.002 c -0.0708,-0.05014 -0.486978,0.08465 -1.242188,0.347656 -1.62598,0.566255 -1.75,-0.716223 -1.75,-18.082031 0,-10.279677 0.3375,-18.517023 0.75,-18.304687 0.4125,0.212336 2.457672,1.165971 4.544922,2.117187 17.86429,8.141271 61.481708,7.940045 77.746098,-0.357422 z M 55.068359,44.177734 c 0.03323,0.09531 0.0646,0.200714 0.09375,0.298828 0.006,0.0022 0.01593,0.0074 0.01953,0.0098 l 0.002,0.002 0.002,0.002 0.002,0.002 v 0.002 0.002 0.002 0.002 0.002 0.002 0.002 c -0.002,0.0049 -0.007,0.01155 -0.01172,0.01758 0.0499,0.170909 0.0934,0.344269 0.132813,0.513671 0.0662,-0.07963 0.131229,-0.140976 0.193359,-0.18164 0.469569,-0.307271 0.271869,-0.563089 -0.433594,-0.677735 z m 0.107422,0.345704 c -0.004,-0.01533 -0.009,-0.0316 -0.01367,-0.04688 -0.0478,-0.01232 -0.157596,3.72e-4 -0.285156,0.03125 0.0187,0.05389 0.03764,0.108306 0.05664,0.16211 0.14084,-0.06662 0.215187,-0.114693 0.242187,-0.146484 z m -24.316406,3.234374 c -0.003,0.01101 -0.0048,0.02193 -0.0078,0.0332 l 0.761719,0.878906 c 0.17765,0.08987 0.355793,0.181099 0.533203,0.271484 z m 4.205078,6.275391 c -0.118557,0.137717 -0.236742,0.274814 -0.355469,0.412109 0.14267,-0.06351 0.280986,-0.115354 0.416016,-0.154296 -0.0204,-0.08626 -0.04105,-0.171527 -0.06055,-0.257813 z m 17.537109,2.964844 c -0.0343,0.0426 -0.07021,0.08259 -0.107421,0.119141 0.0207,0.213942 0.04019,0.428561 0.05859,0.642578 0.20514,-0.158962 0.26223,-0.363895 0.125,-0.585938 -0.0294,-0.04753 -0.05457,-0.10661 -0.07617,-0.175781 z m 53.082028,0.0918 c -0.24254,0 -0.71867,0.449999 -1.05859,1 -0.33992,0.55 -0.14105,1 0.44141,1 0.58246,0 1.05859,-0.45 1.05859,-1 0,-0.550001 -0.19887,-1 -0.44141,-1 z m 16.44141,0 c -0.55,0 -1,0.449999 -1,1 0,0.55 0.45,1 1,1 0.55,0 1,-0.45 1,-1 0,-0.550001 -0.45,-1 -1,-1 z M 10.648438,57.199219 c -0.0463,0.02823 -0.0917,0.05634 -0.132813,0.08398 -0.004,0.04293 -0.008,0.08593 -0.01172,0.128906 0.10509,-0.03614 0.211288,-0.07134 0.316406,-0.107421 -0.0573,-0.03478 -0.115195,-0.07057 -0.171874,-0.105469 z m 106.394532,0.01367 c -0.3474,-0.01431 -0.74453,0.04892 -1.10547,0.193359 -0.79773,0.319226 -0.56143,0.557489 0.60352,0.605469 1.05416,0.04342 1.64479,-0.193099 1.3125,-0.525391 -0.16615,-0.166147 -0.46316,-0.259127 -0.81055,-0.273437 z m 15.96484,0.876953 c -0.55,0 -0.72273,0.45 -0.38281,1 0.33992,0.55 1.06914,1 1.61914,1 0.55,0 0.72078,-0.45 0.38086,-1 -0.33992,-0.55 -1.06719,-1 -1.61719,-1 z m -32.96484,0.123047 c -0.347407,-0.01431 -0.74454,0.04892 -1.10547,0.193359 -0.79773,0.319226 -0.561434,0.557489 0.603516,0.605469 1.054154,0.04342 1.644794,-0.193099 1.312504,-0.525391 -0.16615,-0.166147 -0.46315,-0.259127 -0.81055,-0.273437 z m 28,0 c -0.3474,-0.01431 -0.74453,0.04892 -1.10547,0.193359 -0.79773,0.319226 -0.56143,0.557489 0.60352,0.605469 1.05416,0.04342 1.6448,-0.193099 1.3125,-0.525391 -0.16615,-0.166147 -0.46316,-0.259127 -0.81055,-0.273437 z m 11.02344,0.876953 c -0.58246,0 -0.78133,0.45 -0.44141,1 0.33992,0.55 0.81604,1 1.05859,1 0.24254,0 0.44141,-0.45 0.44141,-1 0,-0.55 -0.47612,-1 -1.05859,-1 z m -49.728519,0.482422 c -0.21249,0.0068 -0.455081,0.05732 -0.712891,0.15625 -0.825,0.316582 -1.5,0.752594 -1.5,0.96875 0,0.216156 0.675,0.392578 1.5,0.392578 0.825,0 1.5,-0.436011 1.5,-0.96875 0,-0.366258 -0.319619,-0.56369 -0.787109,-0.548828 z m 54.669919,0.517578 c -0.55,0 -0.72273,0.45 -0.38281,1 0.33992,0.55 1.06914,1 1.61914,1 0.55,0 0.72078,-0.45 0.38086,-1 -0.33992,-0.55 -1.06719,-1 -1.61719,-1 z m 51.68946,0.0332 c -0.55715,0.05697 -1.21076,0.274319 -1.83594,0.636719 0.28621,0.01466 0.52907,0.05602 0.73437,0.125 0.0283,-0.032 0.0576,-0.0638 0.0859,-0.0957 0.28669,-0.203972 0.52842,-0.493862 0.85938,-0.613281 0.0532,-0.0192 0.10492,-0.0363 0.15625,-0.05273 z m 26.96093,0.240234 c -0.042,0.0029 -0.0726,0.02098 -0.0937,0.05469 0.10128,0.0098 0.20282,0.01463 0.30664,0.01563 -0.0891,-0.05195 -0.15877,-0.07408 -0.21289,-0.07031 z m 203.99219,0.691407 c -0.1561,9.99e-4 -0.29756,0.05669 -0.41797,0.171874 0.0558,-0.0064 0.11367,-0.0096 0.17383,-0.01172 0.17714,-0.0061 0.37486,0.0068 0.59375,0.04102 0.30146,0.04715 0.50325,0.3268 0.73047,0.546875 0.0306,0.0047 0.0613,0.0089 0.0918,0.01367 -0.41677,-0.499839 -0.82975,-0.764005 -1.17188,-0.761718 z m -217.59375,0.105468 c -0.16051,0.04137 -0.27222,0.105448 -0.33594,0.208985 0.11194,-0.07012 0.22404,-0.13881 0.33594,-0.208985 z m -58.99023,0.929688 c -0.58246,0 -0.78133,0.45 -0.44141,1 0.33992,0.55 0.81604,1 1.05859,1 0.24254,0 0.44141,-0.45 0.44141,-1 0,-0.55 -0.47613,-1 -1.05859,-1 z m -71.728519,0.482422 c -0.21249,0.0068 -0.455081,0.05732 -0.712891,0.15625 -0.825,0.316582 -1.5,0.752594 -1.5,0.96875 0,0.216156 0.675,0.392578 1.5,0.392578 0.825,0 1.5,-0.436011 1.5,-0.96875 0,-0.366258 -0.319619,-0.56369 -0.787109,-0.548828 z m 121.822269,0.07813 c -0.15196,0.01058 -0.33587,0.211937 -0.53125,0.601562 0.006,0.0021 0.0131,0.0037 0.0195,0.0059 0.0799,-0.158588 0.17176,-0.303174 0.32422,-0.378906 0.10868,-0.05399 0.22375,-0.109308 0.34179,-0.162109 -0.0414,-0.04257 -0.0876,-0.06502 -0.13672,-0.06641 -0.006,-1.64e-4 -0.0117,-4.12e-4 -0.0176,0 z m 232.4082,6.912109 c 0.009,0.04125 0.0185,0.08191 0.0273,0.123047 0.003,-0.05267 -0.007,-0.09306 -0.0273,-0.123047 z m -218.32031,0.308594 c 0.005,0.03414 0.0103,0.0675 0.0156,0.101562 0.026,0.0264 0.0517,0.05434 0.0781,0.08203 z m 229.70898,2.660156 c -0.0803,0.167708 -0.15689,0.342112 -0.22851,0.519531 0.008,-0.0062 0.0156,-0.01335 0.0234,-0.01953 0.13497,-0.08435 0.26347,-0.173866 0.38672,-0.269531 -0.0565,-0.07923 -0.11737,-0.156639 -0.18164,-0.230469 z m -230.63867,1.837891 c -0.004,0.02309 -0.006,0.04785 -0.004,0.07031 0.0162,-0.0016 0.0326,-0.0042 0.0488,-0.0059 -0.0152,-0.0209 -0.0301,-0.0434 -0.0449,-0.06445 z m 231.1875,1.558593 c -0.026,0.03759 -0.0503,0.07603 -0.0742,0.115235 -0.26291,0.52885 -0.39398,1.093347 -0.48828,1.675781 -0.0321,0.153755 -0.0623,0.30858 -0.0918,0.462891 h 0.002 v 0.002 h 0.002 c 0.22114,-0.680072 0.44417,-1.45017 0.65039,-2.25586 z M 318.4668,78.435547 c -0.13939,0.01505 -0.23322,0.378627 -0.26172,1.070312 -0.0434,1.054167 0.19115,1.644792 0.52344,1.3125 0.33235,-0.332291 0.36846,-1.19414 0.0801,-1.916015 -0.12968,-0.324079 -0.24642,-0.47709 -0.34179,-0.466797 z m -133.99024,4.802734 c -0.44264,0.0063 -1.58797,0.436134 -3.50781,1.423828 -1.83861,0.945905 -7.48887,4.354569 -12.55664,7.574219 -5.06776,3.21965 -9.6112,5.853516 -10.0957,5.853516 -0.48449,0 -1.69593,0.900038 -2.69141,1.999996 -1.3632,1.50632 -1.46248,1.98263 -0.4043,1.92969 1.69542,-0.0848 5.77156,-1.75965 4.52539,-1.85937 -1.02563,-0.0821 12.19361,-8.820197 20.05664,-13.257816 3.79985,-2.144499 5.51887,-3.676078 4.67383,-3.664063 z m 144.23828,0.09961 c -3.92648,-0.08884 -6.64714,0.0379 -6.92187,0.482421 -0.36895,0.596981 4.86531,1.252578 13.61523,1.705079 7.81894,0.404356 16.2418,1.091039 18.7168,1.52539 6.40242,1.123594 9,1.169369 9,0.16211 0,-1.401241 -22.63069,-3.608488 -34.41016,-3.875 z m -18.72851,0.80664 c -2.22814,0.04384 -5.77324,0.400356 -11.04297,1.076172 -4.84975,0.621956 -8.81836,1.580852 -8.81836,2.130859 0,0.603634 1.4864,0.745017 3.75,0.355469 2.0625,-0.354941 7.2375,-0.930755 11.5,-1.279297 4.2625,-0.348541 7.75,-1.017847 7.75,-1.486328 0,-0.572131 -0.91054,-0.840715 -3.13867,-0.796875 z m 9.48047,0.291016 c -0.13939,0.01505 -0.23322,0.378627 -0.26172,1.070312 -0.0434,1.054167 0.19115,1.644792 0.52344,1.3125 0.33235,-0.332291 0.36846,-1.19414 0.0801,-1.916015 -0.12968,-0.324079 -0.24642,-0.477091 -0.34179,-0.466797 z m -34.89063,3.644531 c -3.91462,-0.02032 -14.67475,4.510616 -18.51172,7.794922 -2.80301,2.399279 -3.93945,4.15906 -3.93945,6.10547 0,8.59953 21.03114,16.2501 49.5,18.00586 35.26402,2.17484 69.81499,-3.85318 77.40625,-13.50391 2.72703,-3.46685 2.64321,-5.58714 -0.36328,-9.160154 -3.63326,-4.31789 -20.54297,-11.251962 -20.54297,-8.423828 0,0.532488 1.4625,1.243899 3.25,1.580078 1.7875,0.336179 6.06299,1.942943 9.50195,3.570312 10.91312,5.164241 10.93495,10.618382 0.0625,15.947262 -18.6044,9.11853 -63.70607,11.57817 -93.18945,5.08203 -9.07571,-1.99966 -18.67374,-5.8171 -21.84766,-8.68945 -2.27254,-2.05664 -2.28768,-6.540772 -0.0273,-8.527342 2.5303,-2.224461 9.05427,-5.350238 14.25,-6.828125 5.14102,-1.462325 7.36572,-2.937995 4.45117,-2.953125 z m -171.50586,1.548828 c -12.1126,0.121797 -24.266788,0.761128 -30.306638,1.855469 -24.37542,4.416506 -35.963269,11.579845 -31.53125,19.492185 3.08326,5.50445 17.6672,10.92783 36.71875,13.65235 12.708878,1.81747 48.258168,1.27034 60.173828,-0.92579 23.92939,-4.41033 34.95367,-11.93012 29.55859,-20.16406 -1.75108,-2.67248 -9.03047,-6.797343 -10.88281,-6.166013 -0.64642,0.22032 0.69496,1.35977 2.98047,2.53125 2.28551,1.171473 5.08529,3.311883 6.22266,4.757813 1.89244,2.40584 1.94456,2.86903 0.61132,5.44727 -2.82115,5.4555 -17.65309,10.57109 -37.80859,13.04101 -14.74133,1.80645 -48.396447,0.68715 -61.054687,-2.03125 -10.874,-2.33523 -21.070034,-6.53462 -24.058594,-9.9082 -4.14687,-4.68111 1.265369,-10.44536 13.298829,-14.162112 21.783777,-6.728324 60.966642,-7.878376 86.132812,-2.529297 3.575,0.759868 6.85234,1.048881 7.2832,0.642578 0.83623,-0.788549 -5.12122,-2.266454 -17.2832,-4.285156 -5.87145,-0.974569 -17.94209,-1.369844 -30.05469,-1.248047 z M 320.125,90.089844 c -0.55,0 -1,0.45 -1,1 0,0.55 0.45,1 1,1 0.55,0 1,-0.45 1,-1 0,-0.55 -0.45,-1 -1,-1 z m 18,2 c -0.55,0 -1,0.45 -1,1 0,0.55 0.45,1 1,1 0.55,0 1,-0.45 1,-1 0,-0.55 -0.45,-1 -1,-1 z m -11.08203,0.123047 c -0.3474,-0.01431 -0.74453,0.04892 -1.10547,0.193359 -0.79773,0.319226 -0.56142,0.557489 0.60352,0.605469 1.05417,0.04342 1.6448,-0.193099 1.3125,-0.525391 -0.16615,-0.166148 -0.46316,-0.259127 -0.81055,-0.273437 z m -22.85938,0.876953 c -0.58246,0 -1.05859,0.45 -1.05859,1 0,0.55 0.19887,1 0.44141,1 0.24254,0 0.71867,-0.45 1.05859,-1 0.33992,-0.55 0.14104,-1 -0.44141,-1 z m 5.85938,0.123047 c -0.3474,-0.01431 -0.74453,0.04892 -1.10547,0.193359 -0.79773,0.319226 -0.56142,0.557489 0.60352,0.605469 1.05417,0.04342 1.6448,-0.193099 1.3125,-0.525391 -0.16615,-0.166148 -0.46316,-0.259127 -0.81055,-0.273437 z m 34,0 c -0.3474,-0.01431 -0.74453,0.04892 -1.10547,0.193359 -0.79773,0.319226 -0.56142,0.557489 0.60352,0.605469 1.05417,0.04342 1.6448,-0.193099 1.3125,-0.525391 -0.16615,-0.166148 -0.46316,-0.259127 -0.81055,-0.273437 z m 4.55078,0.210937 c -0.28028,0.01512 -0.46875,0.232007 -0.46875,0.607422 0,0.582459 0.45,1.058594 1,1.058594 0.55,0 1,-0.198866 1,-0.441406 0,-0.242543 -0.45,-0.718676 -1,-1.058594 -0.17187,-0.106224 -0.33295,-0.16023 -0.47461,-0.166016 -0.0195,-7.96e-4 -0.038,-0.001 -0.0566,0 z m -49.55078,0.789063 c -0.3474,-0.01431 -0.74453,0.04892 -1.10547,0.193359 -0.79773,0.319226 -0.56142,0.557489 0.60352,0.605469 1.05417,0.04342 1.6448,-0.193099 1.3125,-0.525391 -0.16615,-0.166148 -0.46316,-0.259127 -0.81055,-0.273437 z m 54.75,0.320312 c -0.30407,0.01556 -0.37912,0.214073 -0.16016,0.568359 0.33602,0.543701 1.03323,0.988282 1.55078,0.988282 1.43843,0 1.12305,-0.716069 -0.60937,-1.38086 -0.33371,-0.128061 -0.59881,-0.18512 -0.78125,-0.175781 z m -60.10938,0.556641 c -0.24255,0 -0.71867,0.45 -1.05859,1 -0.33992,0.549997 -0.14105,1 0.44141,1 0.58246,0 1.05859,-0.450003 1.05859,-1 0,-0.55 -0.19887,-1 -0.44141,-1 z m 26.82422,0 c -0.21154,0.02064 -0.38281,0.687891 -0.38281,1.5 0,0.824997 0.43602,1.5 0.96875,1.5 0.53274,0 0.70917,-0.675003 0.39258,-1.5 -0.31658,-0.825 -0.75259,-1.5 -0.96875,-1.5 -0.003,0 -0.006,-3.27e-4 -0.01,0 z m 39.5586,1 c -0.58246,0 -0.78133,0.450003 -0.44141,1 0.33992,0.55 0.81604,1 1.05859,1 0.24254,0 0.44141,-0.45 0.44141,-1 0,-0.549997 -0.47613,-1 -1.05859,-1 z m -324.105472,1.08789 c 0.004,0.19472 0.004,0.389035 0,0.583985 0.130659,-0.14942 0.261366,-0.298167 0.404296,-0.435547 -0.11179,-0.0598 -0.247836,-0.109958 -0.404296,-0.148438 z m 8.99414,0.125 c -0.0155,0.10453 -0.03665,0.212019 -0.06445,0.324219 -0.0157,0.0634 -0.03082,0.127576 -0.04492,0.191406 0.17568,-0.13177 0.279297,-0.251237 0.279297,-0.335937 0,-0.0652 -0.06151,-0.12542 -0.169922,-0.179688 z m 63.888672,0.160157 C 91.062434,97.955784 76.125,101.26981 76.125,105.59961 c 0,2.94654 4.93038,3.72928 19.25,3.05273 8.72398,-0.41217 13.75,-0.29346 13.75,0.32618 0,0.96955 -0.96505,1.361 -6.25,2.5371 -4.002596,0.89075 -3.701316,4.22149 0.5,5.52735 4.47563,1.39112 27.82411,0.46034 35.53125,-1.41602 13.10772,-3.19116 17.975,-7.76977 12.90039,-12.13476 -3.19044,-2.74431 -9.83251,-4.228327 -24.68164,-5.515628 -6.11124,-0.52979 -12.35414,-0.677981 -18.28125,-0.513671 z m -66.638672,0.283203 c -0.0522,0.0981 -0.08008,0.20337 -0.08008,0.3125 0,0.0256 0.0029,0.05032 0.0059,0.07422 0.0273,-0.128337 0.05022,-0.257488 0.07422,-0.386718 z m 80.398442,1.785156 c 15.57314,0.73462 29.02148,3.26596 29.02148,7.05859 0,2.80604 -7.48603,6.30799 -17.17578,8.03516 -7.32254,1.30522 -26.66875,1.796 -30.57422,0.77539 -2.99949,-0.78385 -1.93317,-2.02779 2.75,-3.20703 3.44201,-0.86671 4.5,-1.59842 4.5,-3.11719 0,-2.2706 1.05163,-2.13853 -18.410156,-2.34179 -14.17368,-0.14804 -17.666743,-1.17265 -11.876953,-3.48438 8.49513,-3.391896 26.192489,-4.45337 41.765629,-3.71875 z m 198.93164,1.83594 c -0.30599,0.0143 -0.41016,0.55599 -0.41016,1.72265 0,1.86667 0.26783,2.13256 1.20117,1.19922 0.93333,-0.93333 0.93333,-1.46509 0,-2.39844 -0.35,-0.34999 -0.60742,-0.53203 -0.79101,-0.52343 z m -4.29102,3.72265 c -0.55,0 -1.27922,0.45 -1.61914,1 -0.33992,0.55 -0.16719,1 0.38281,1 0.55,0 1.27727,-0.45 1.61719,-1 0.33992,-0.55 0.16914,-1 -0.38086,-1 z m -70.4668,1.31836 c 0.006,0.20742 0.0648,0.35527 0.17774,0.45899 -0.0714,-0.13479 -0.13002,-0.28827 -0.17774,-0.45899 z" />
    <g
       id="g1930"
       transform="matrix(1.6662176,0,0,1.8702339,18.526648,27.593791)"
       ns3:version="1.13.0"
       ns3:texconverter="pdflatex"
       ns3:pdfconverter="inkscape"
       ns3:text="$X \\times I$"
       ns3:preamble="/home/adityay/.config/inkscape/extensions/textext/default_packages.tex"
       ns3:scale="1.0"
       ns3:alignment="middle center"
       ns3:jacobian_sqrt="1.33333">
      <defs
         id="defs4653">
        <g
           id="g4370">
          <g
             id="g7136">
            <path
               d="M 4.828125,-4.09375 4,-6.078125 c -0.03125,-0.078125 -0.046875,-0.125 -0.046875,-0.125 0,-0.0625 0.15625,-0.25 0.578125,-0.296875 0.109375,-0.015625 0.203125,-0.015625 0.203125,-0.1875 0,-0.125 -0.125,-0.125 -0.15625,-0.125 -0.40625,0 -0.828125,0.03125 -1.25,0.03125 -0.25,0 -0.859375,-0.03125 -1.109375,-0.03125 -0.0625,0 -0.1875,0 -0.1875,0.203125 C 2.03125,-6.5 2.140625,-6.5 2.265625,-6.5 c 0.59375,0 0.65625,0.09375 0.75,0.3125 l 1.171875,2.78125 -2.109375,2.265625 -0.125,0.109375 C 1.46875,-0.5 1,-0.34375 0.484375,-0.3125 c -0.125,0.015625 -0.21875,0.015625 -0.21875,0.203125 0,0.015625 0,0.109375 0.140625,0.109375 0.296875,0 0.625,-0.03125 0.921875,-0.03125 C 1.703125,-0.03125 2.09375,0 2.453125,0 2.515625,0 2.625,0 2.625,-0.203125 2.625,-0.296875 2.53125,-0.3125 2.515625,-0.3125 c -0.09375,0 -0.40625,-0.03125 -0.40625,-0.3125 0,-0.15625 0.15625,-0.3125 0.265625,-0.4375 L 3.40625,-2.140625 4.296875,-3.125 l 1,2.390625 c 0.046875,0.109375 0.0625,0.109375 0.0625,0.140625 0,0.078125 -0.203125,0.25 -0.578125,0.28125 C 4.671875,-0.296875 4.578125,-0.296875 4.578125,-0.125 4.578125,0 4.6875,0 4.71875,0 5,0 5.703125,-0.03125 5.984375,-0.03125 6.234375,-0.03125 6.84375,0 7.09375,0 c 0.0625,0 0.1875,0 0.1875,-0.1875 0,-0.125 -0.109375,-0.125 -0.1875,-0.125 -0.65625,0 -0.6875,-0.03125 -0.859375,-0.4375 C 5.859375,-1.671875 5.1875,-3.234375 4.953125,-3.828125 5.625,-4.53125 6.671875,-5.71875 7,-5.984375 7.28125,-6.234375 7.671875,-6.46875 8.265625,-6.5 c 0.125,-0.015625 0.21875,-0.015625 0.21875,-0.203125 0,0 0,-0.109375 -0.125,-0.109375 -0.296875,0 -0.640625,0.03125 -0.9375,0.03125 -0.375,0 -0.75,-0.03125 -1.109375,-0.03125 -0.0625,0 -0.1875,0 -0.1875,0.203125 0,0.0625 0.046875,0.09375 0.109375,0.109375 0.09375,0.015625 0.40625,0.03125 0.40625,0.3125 0,0.140625 -0.109375,0.265625 -0.1875,0.359375 z m 0,0"
               id="path6229" />
          </g>
          <g
             id="g943">
            <path
               d="M 3.734375,-6.046875 C 3.8125,-6.40625 3.84375,-6.5 4.640625,-6.5 c 0.234375,0 0.3125,0 0.3125,-0.1875 0,-0.125 -0.109375,-0.125 -0.140625,-0.125 -0.296875,0 -1.03125,0.03125 -1.328125,0.03125 -0.296875,0 -1.015625,-0.03125 -1.328125,-0.03125 -0.0625,0 -0.1875,0 -0.1875,0.203125 C 1.96875,-6.5 2.046875,-6.5 2.25,-6.5 c 0.40625,0 0.6875,0 0.6875,0.1875 0,0.046875 0,0.078125 -0.03125,0.15625 l -1.34375,5.375 c -0.09375,0.375 -0.109375,0.46875 -0.90625,0.46875 -0.234375,0 -0.3125,0 -0.3125,0.203125 C 0.34375,0 0.453125,0 0.484375,0 0.78125,0 1.5,-0.03125 1.796875,-0.03125 2.09375,-0.03125 2.828125,0 3.125,0 c 0.078125,0 0.203125,0 0.203125,-0.1875 0,-0.125 -0.078125,-0.125 -0.296875,-0.125 -0.1875,0 -0.234375,0 -0.421875,-0.015625 -0.21875,-0.015625 -0.25,-0.0625 -0.25,-0.171875 0,-0.078125 0.015625,-0.15625 0.03125,-0.234375 z m 0,0"
               id="path4185" />
          </g>
          <g
             id="g4933">
            <path
               d="M 3.875,-2.765625 1.890625,-4.75 C 1.765625,-4.875 1.75,-4.890625 1.671875,-4.890625 1.5625,-4.890625 1.46875,-4.8125 1.46875,-4.6875 c 0,0.0625 0.015625,0.078125 0.125,0.1875 l 2,2 -2,2.015625 c -0.109375,0.109375 -0.125,0.125 -0.125,0.1875 0,0.125 0.09375,0.203125 0.203125,0.203125 0.078125,0 0.09375,-0.015625 0.21875,-0.140625 L 3.875,-2.21875 l 2.0625,2.0625 c 0.015625,0.015625 0.078125,0.0625 0.140625,0.0625 0.125,0 0.203125,-0.078125 0.203125,-0.203125 0,-0.015625 0,-0.046875 -0.03125,-0.109375 C 6.234375,-0.421875 4.65625,-1.984375 4.15625,-2.5 l 1.828125,-1.8125 c 0.046875,-0.0625 0.203125,-0.1875 0.25,-0.25 0,-0.015625 0.046875,-0.0625 0.046875,-0.125 0,-0.125 -0.078125,-0.203125 -0.203125,-0.203125 C 6,-4.890625 5.96875,-4.859375 5.859375,-4.75 Z m 0,0"
               id="path8249" />
          </g>
        </g>
      </defs>
      <g
         fill="#000000"
         fill-opacity="1"
         id="g8667"
         transform="translate(-148.978,-127.953)">
        <g
           transform="translate(148.712,134.765)"
           id="g4710">
          <path
             d="M 4.828125,-4.09375 4,-6.078125 c -0.03125,-0.078125 -0.046875,-0.125 -0.046875,-0.125 0,-0.0625 0.15625,-0.25 0.578125,-0.296875 0.109375,-0.015625 0.203125,-0.015625 0.203125,-0.1875 0,-0.125 -0.125,-0.125 -0.15625,-0.125 -0.40625,0 -0.828125,0.03125 -1.25,0.03125 -0.25,0 -0.859375,-0.03125 -1.109375,-0.03125 -0.0625,0 -0.1875,0 -0.1875,0.203125 C 2.03125,-6.5 2.140625,-6.5 2.265625,-6.5 c 0.59375,0 0.65625,0.09375 0.75,0.3125 l 1.171875,2.78125 -2.109375,2.265625 -0.125,0.109375 C 1.46875,-0.5 1,-0.34375 0.484375,-0.3125 c -0.125,0.015625 -0.21875,0.015625 -0.21875,0.203125 0,0.015625 0,0.109375 0.140625,0.109375 0.296875,0 0.625,-0.03125 0.921875,-0.03125 C 1.703125,-0.03125 2.09375,0 2.453125,0 2.515625,0 2.625,0 2.625,-0.203125 2.625,-0.296875 2.53125,-0.3125 2.515625,-0.3125 c -0.09375,0 -0.40625,-0.03125 -0.40625,-0.3125 0,-0.15625 0.15625,-0.3125 0.265625,-0.4375 L 3.40625,-2.140625 4.296875,-3.125 l 1,2.390625 c 0.046875,0.109375 0.0625,0.109375 0.0625,0.140625 0,0.078125 -0.203125,0.25 -0.578125,0.28125 C 4.671875,-0.296875 4.578125,-0.296875 4.578125,-0.125 4.578125,0 4.6875,0 4.71875,0 5,0 5.703125,-0.03125 5.984375,-0.03125 6.234375,-0.03125 6.84375,0 7.09375,0 c 0.0625,0 0.1875,0 0.1875,-0.1875 0,-0.125 -0.109375,-0.125 -0.1875,-0.125 -0.65625,0 -0.6875,-0.03125 -0.859375,-0.4375 C 5.859375,-1.671875 5.1875,-3.234375 4.953125,-3.828125 5.625,-4.53125 6.671875,-5.71875 7,-5.984375 7.28125,-6.234375 7.671875,-6.46875 8.265625,-6.5 c 0.125,-0.015625 0.21875,-0.015625 0.21875,-0.203125 0,0 0,-0.109375 -0.125,-0.109375 -0.296875,0 -0.640625,0.03125 -0.9375,0.03125 -0.375,0 -0.75,-0.03125 -1.109375,-0.03125 -0.0625,0 -0.1875,0 -0.1875,0.203125 0,0.0625 0.046875,0.09375 0.109375,0.109375 0.09375,0.015625 0.40625,0.03125 0.40625,0.3125 0,0.140625 -0.109375,0.265625 -0.1875,0.359375 z m 0,0"
             id="path4605" />
        </g>
      </g>
      <g
         fill="#000000"
         fill-opacity="1"
         id="g428"
         transform="translate(-148.978,-127.953)">
        <g
           transform="translate(159.962,134.765)"
           id="g6695">
          <path
             d="M 3.875,-2.765625 1.890625,-4.75 C 1.765625,-4.875 1.75,-4.890625 1.671875,-4.890625 1.5625,-4.890625 1.46875,-4.8125 1.46875,-4.6875 c 0,0.0625 0.015625,0.078125 0.125,0.1875 l 2,2 -2,2.015625 c -0.109375,0.109375 -0.125,0.125 -0.125,0.1875 0,0.125 0.09375,0.203125 0.203125,0.203125 0.078125,0 0.09375,-0.015625 0.21875,-0.140625 L 3.875,-2.21875 l 2.0625,2.0625 c 0.015625,0.015625 0.078125,0.0625 0.140625,0.0625 0.125,0 0.203125,-0.078125 0.203125,-0.203125 0,-0.015625 0,-0.046875 -0.03125,-0.109375 C 6.234375,-0.421875 4.65625,-1.984375 4.15625,-2.5 l 1.828125,-1.8125 c 0.046875,-0.0625 0.203125,-0.1875 0.25,-0.25 0,-0.015625 0.046875,-0.0625 0.046875,-0.125 0,-0.125 -0.078125,-0.203125 -0.203125,-0.203125 C 6,-4.890625 5.96875,-4.859375 5.859375,-4.75 Z m 0,0"
             id="path5801" />
        </g>
      </g>
      <g
         fill="#000000"
         fill-opacity="1"
         id="g9494"
         transform="translate(-148.978,-127.953)">
        <g
           transform="translate(169.924,134.765)"
           id="g496">
          <path
             d="M 3.734375,-6.046875 C 3.8125,-6.40625 3.84375,-6.5 4.640625,-6.5 c 0.234375,0 0.3125,0 0.3125,-0.1875 0,-0.125 -0.109375,-0.125 -0.140625,-0.125 -0.296875,0 -1.03125,0.03125 -1.328125,0.03125 -0.296875,0 -1.015625,-0.03125 -1.328125,-0.03125 -0.0625,0 -0.1875,0 -0.1875,0.203125 C 1.96875,-6.5 2.046875,-6.5 2.25,-6.5 c 0.40625,0 0.6875,0 0.6875,0.1875 0,0.046875 0,0.078125 -0.03125,0.15625 l -1.34375,5.375 c -0.09375,0.375 -0.109375,0.46875 -0.90625,0.46875 -0.234375,0 -0.3125,0 -0.3125,0.203125 C 0.34375,0 0.453125,0 0.484375,0 0.78125,0 1.5,-0.03125 1.796875,-0.03125 2.09375,-0.03125 2.828125,0 3.125,0 c 0.078125,0 0.203125,0 0.203125,-0.1875 0,-0.125 -0.078125,-0.125 -0.296875,-0.125 -0.1875,0 -0.234375,0 -0.421875,-0.015625 -0.21875,-0.015625 -0.25,-0.0625 -0.25,-0.171875 0,-0.078125 0.015625,-0.15625 0.03125,-0.234375 z m 0,0"
             id="path7431" />
        </g>
      </g>
    </g>
    <g
       id="g7740"
       transform="matrix(1.7657624,0,0,2.0619853,22.076749,102.05334)"
       ns3:version="1.13.0"
       ns3:texconverter="pdflatex"
       ns3:pdfconverter="inkscape"
       ns3:text="$Y$"
       ns3:preamble="/home/adityay/.config/inkscape/extensions/textext/default_packages.tex"
       ns3:scale="1.0"
       ns3:alignment="middle center"
       ns3:jacobian_sqrt="1.33333">
      <defs
         id="defs161">
        <g
           id="g7805">
          <g
             id="g2738">
            <path
               d="M 5.953125,-5.671875 6.09375,-5.8125 C 6.390625,-6.109375 6.71875,-6.453125 7.390625,-6.5 7.5,-6.515625 7.59375,-6.515625 7.59375,-6.6875 c 0,-0.078125 -0.046875,-0.125 -0.125,-0.125 -0.265625,0 -0.546875,0.03125 -0.8125,0.03125 -0.34375,0 -0.6875,-0.03125 -1,-0.03125 -0.0625,0 -0.1875,0 -0.1875,0.1875 0,0.109375 0.09375,0.125 0.140625,0.125 0.078125,0 0.359375,0.015625 0.359375,0.234375 0,0.171875 -0.234375,0.421875 -0.265625,0.46875 L 3.390625,-3.125 2.296875,-6.09375 C 2.234375,-6.234375 2.234375,-6.25 2.234375,-6.265625 2.234375,-6.5 2.71875,-6.5 2.828125,-6.5 c 0.125,0 0.234375,0 0.234375,-0.203125 0,-0.109375 -0.125,-0.109375 -0.15625,-0.109375 -0.28125,0 -0.96875,0.03125 -1.25,0.03125 -0.25,0 -0.875,-0.03125 -1.125,-0.03125 -0.046875,0 -0.1875,0 -0.1875,0.203125 C 0.34375,-6.5 0.453125,-6.5 0.578125,-6.5 c 0.59375,0 0.640625,0.09375 0.734375,0.34375 L 2.53125,-2.875 c 0.015625,0.03125 0.046875,0.140625 0.046875,0.15625 0,0.03125 -0.40625,1.640625 -0.453125,1.828125 C 2,-0.34375 1.984375,-0.3125 1.1875,-0.3125 c -0.1875,0 -0.265625,0 -0.265625,0.203125 C 0.921875,0 1.03125,0 1.0625,0 c 0.265625,0 0.96875,-0.03125 1.25,-0.03125 0.28125,0 1,0.03125 1.28125,0.03125 0.0625,0 0.1875,0 0.1875,-0.203125 C 3.78125,-0.3125 3.6875,-0.3125 3.5,-0.3125 c -0.015625,0 -0.203125,0 -0.375,-0.015625 C 2.90625,-0.34375 2.84375,-0.375 2.84375,-0.484375 c 0,-0.078125 0.09375,-0.421875 0.140625,-0.625 l 0.359375,-1.40625 c 0.046875,-0.203125 0.0625,-0.21875 0.140625,-0.3125 z m 0,0"
               id="path9010" />
          </g>
        </g>
      </defs>
      <g
         fill="#000000"
         fill-opacity="1"
         id="g9300"
         transform="translate(-149.056,-127.953)">
        <g
           transform="translate(148.712,134.765)"
           id="g2445">
          <path
             d="M 5.953125,-5.671875 6.09375,-5.8125 C 6.390625,-6.109375 6.71875,-6.453125 7.390625,-6.5 7.5,-6.515625 7.59375,-6.515625 7.59375,-6.6875 c 0,-0.078125 -0.046875,-0.125 -0.125,-0.125 -0.265625,0 -0.546875,0.03125 -0.8125,0.03125 -0.34375,0 -0.6875,-0.03125 -1,-0.03125 -0.0625,0 -0.1875,0 -0.1875,0.1875 0,0.109375 0.09375,0.125 0.140625,0.125 0.078125,0 0.359375,0.015625 0.359375,0.234375 0,0.171875 -0.234375,0.421875 -0.265625,0.46875 L 3.390625,-3.125 2.296875,-6.09375 C 2.234375,-6.234375 2.234375,-6.25 2.234375,-6.265625 2.234375,-6.5 2.71875,-6.5 2.828125,-6.5 c 0.125,0 0.234375,0 0.234375,-0.203125 0,-0.109375 -0.125,-0.109375 -0.15625,-0.109375 -0.28125,0 -0.96875,0.03125 -1.25,0.03125 -0.25,0 -0.875,-0.03125 -1.125,-0.03125 -0.046875,0 -0.1875,0 -0.1875,0.203125 C 0.34375,-6.5 0.453125,-6.5 0.578125,-6.5 c 0.59375,0 0.640625,0.09375 0.734375,0.34375 L 2.53125,-2.875 c 0.015625,0.03125 0.046875,0.140625 0.046875,0.15625 0,0.03125 -0.40625,1.640625 -0.453125,1.828125 C 2,-0.34375 1.984375,-0.3125 1.1875,-0.3125 c -0.1875,0 -0.265625,0 -0.265625,0.203125 C 0.921875,0 1.03125,0 1.0625,0 c 0.265625,0 0.96875,-0.03125 1.25,-0.03125 0.28125,0 1,0.03125 1.28125,0.03125 0.0625,0 0.1875,0 0.1875,-0.203125 C 3.78125,-0.3125 3.6875,-0.3125 3.5,-0.3125 c -0.015625,0 -0.203125,0 -0.375,-0.015625 C 2.90625,-0.34375 2.84375,-0.375 2.84375,-0.484375 c 0,-0.078125 0.09375,-0.421875 0.140625,-0.625 l 0.359375,-1.40625 c 0.046875,-0.203125 0.0625,-0.21875 0.140625,-0.3125 z m 0,0"
             id="path6597" />
        </g>
      </g>
    </g>
    <g
       id="g1463"
       transform="matrix(1.6536881,0,0,1.8828373,188.3415,65.452102)"
       ns3:version="1.13.0"
       ns3:texconverter="pdflatex"
       ns3:pdfconverter="inkscape"
       ns3:text="$f(X)$"
       ns3:preamble="/home/adityay/.config/inkscape/extensions/textext/default_packages.tex"
       ns3:scale="1.0"
       ns3:alignment="middle center"
       ns3:jacobian_sqrt="1.33333">
      <defs
         id="defs3980">
        <g
           id="g2434">
          <g
             id="g5475">
            <path
               d="m 3.65625,-3.984375 h 0.859375 c 0.203125,0 0.296875,0 0.296875,-0.203125 0,-0.109375 -0.09375,-0.109375 -0.265625,-0.109375 H 3.71875 L 3.921875,-5.4375 c 0.046875,-0.203125 0.1875,-0.90625 0.25,-1.03125 0.078125,-0.1875 0.25,-0.34375 0.46875,-0.34375 0.03125,0 0.296875,0 0.484375,0.1875 -0.4375,0.03125 -0.546875,0.390625 -0.546875,0.53125 0,0.234375 0.1875,0.359375 0.375,0.359375 C 5.21875,-5.734375 5.5,-5.96875 5.5,-6.34375 c 0,-0.453125 -0.453125,-0.6875 -0.859375,-0.6875 -0.34375,0 -0.96875,0.1875 -1.265625,1.171875 -0.0625,0.203125 -0.09375,0.3125 -0.328125,1.5625 h -0.6875 c -0.203125,0 -0.3125,0 -0.3125,0.1875 0,0.125 0.09375,0.125 0.28125,0.125 h 0.65625 L 2.25,-0.046875 c -0.1875,0.96875 -0.359375,1.875 -0.875,1.875 -0.046875,0 -0.28125,0 -0.484375,-0.1875 C 1.359375,1.609375 1.453125,1.25 1.453125,1.109375 1.453125,0.875 1.265625,0.75 1.078125,0.75 0.8125,0.75 0.53125,0.984375 0.53125,1.359375 c 0,0.4375 0.4375,0.6875 0.84375,0.6875 0.546875,0 0.953125,-0.59375 1.125,-0.96875 0.328125,-0.625 0.546875,-1.828125 0.5625,-1.90625 z m 0,0"
               id="path7095" />
          </g>
          <g
             id="g4651">
            <path
               d="M 4.828125,-4.09375 4,-6.078125 c -0.03125,-0.078125 -0.046875,-0.125 -0.046875,-0.125 0,-0.0625 0.15625,-0.25 0.578125,-0.296875 0.109375,-0.015625 0.203125,-0.015625 0.203125,-0.1875 0,-0.125 -0.125,-0.125 -0.15625,-0.125 -0.40625,0 -0.828125,0.03125 -1.25,0.03125 -0.25,0 -0.859375,-0.03125 -1.109375,-0.03125 -0.0625,0 -0.1875,0 -0.1875,0.203125 C 2.03125,-6.5 2.140625,-6.5 2.265625,-6.5 c 0.59375,0 0.65625,0.09375 0.75,0.3125 l 1.171875,2.78125 -2.109375,2.265625 -0.125,0.109375 C 1.46875,-0.5 1,-0.34375 0.484375,-0.3125 c -0.125,0.015625 -0.21875,0.015625 -0.21875,0.203125 0,0.015625 0,0.109375 0.140625,0.109375 0.296875,0 0.625,-0.03125 0.921875,-0.03125 C 1.703125,-0.03125 2.09375,0 2.453125,0 2.515625,0 2.625,0 2.625,-0.203125 2.625,-0.296875 2.53125,-0.3125 2.515625,-0.3125 c -0.09375,0 -0.40625,-0.03125 -0.40625,-0.3125 0,-0.15625 0.15625,-0.3125 0.265625,-0.4375 L 3.40625,-2.140625 4.296875,-3.125 l 1,2.390625 c 0.046875,0.109375 0.0625,0.109375 0.0625,0.140625 0,0.078125 -0.203125,0.25 -0.578125,0.28125 C 4.671875,-0.296875 4.578125,-0.296875 4.578125,-0.125 4.578125,0 4.6875,0 4.71875,0 5,0 5.703125,-0.03125 5.984375,-0.03125 6.234375,-0.03125 6.84375,0 7.09375,0 c 0.0625,0 0.1875,0 0.1875,-0.1875 0,-0.125 -0.109375,-0.125 -0.1875,-0.125 -0.65625,0 -0.6875,-0.03125 -0.859375,-0.4375 C 5.859375,-1.671875 5.1875,-3.234375 4.953125,-3.828125 5.625,-4.53125 6.671875,-5.71875 7,-5.984375 7.28125,-6.234375 7.671875,-6.46875 8.265625,-6.5 c 0.125,-0.015625 0.21875,-0.015625 0.21875,-0.203125 0,0 0,-0.109375 -0.125,-0.109375 -0.296875,0 -0.640625,0.03125 -0.9375,0.03125 -0.375,0 -0.75,-0.03125 -1.109375,-0.03125 -0.0625,0 -0.1875,0 -0.1875,0.203125 0,0.0625 0.046875,0.09375 0.109375,0.109375 0.09375,0.015625 0.40625,0.03125 0.40625,0.3125 0,0.140625 -0.109375,0.265625 -0.1875,0.359375 z m 0,0"
               id="path9062" />
          </g>
          <g
             id="g6126">
            <path
               d="m 3.296875,2.390625 c 0,-0.03125 0,-0.046875 -0.171875,-0.21875 C 1.890625,0.921875 1.5625,-0.96875 1.5625,-2.5 c 0,-1.734375 0.375,-3.46875 1.609375,-4.703125 0.125,-0.125 0.125,-0.140625 0.125,-0.171875 0,-0.078125 -0.03125,-0.109375 -0.09375,-0.109375 -0.109375,0 -1,0.6875 -1.59375,1.953125 -0.5,1.09375 -0.625,2.203125 -0.625,3.03125 0,0.78125 0.109375,1.984375 0.65625,3.125 C 2.25,1.84375 3.09375,2.5 3.203125,2.5 c 0.0625,0 0.09375,-0.03125 0.09375,-0.109375 z m 0,0"
               id="path3715" />
          </g>
          <g
             id="g448">
            <path
               d="m 2.875,-2.5 c 0,-0.765625 -0.109375,-1.96875 -0.65625,-3.109375 -0.59375,-1.21875 -1.453125,-1.875 -1.546875,-1.875 -0.0625,0 -0.109375,0.046875 -0.109375,0.109375 0,0.03125 0,0.046875 0.1875,0.234375 0.984375,0.984375 1.546875,2.5625 1.546875,4.640625 0,1.71875 -0.359375,3.46875 -1.59375,4.71875 C 0.5625,2.34375 0.5625,2.359375 0.5625,2.390625 0.5625,2.453125 0.609375,2.5 0.671875,2.5 0.765625,2.5 1.671875,1.8125 2.25,0.546875 2.765625,-0.546875 2.875,-1.65625 2.875,-2.5 Z m 0,0"
               id="path6507" />
          </g>
        </g>
      </defs>
      <g
         fill="#000000"
         fill-opacity="1"
         id="g6635"
         transform="translate(-149.243,-127.281)">
        <g
           transform="translate(148.712,134.765)"
           id="g8448">
          <path
             d="m 3.65625,-3.984375 h 0.859375 c 0.203125,0 0.296875,0 0.296875,-0.203125 0,-0.109375 -0.09375,-0.109375 -0.265625,-0.109375 H 3.71875 L 3.921875,-5.4375 c 0.046875,-0.203125 0.1875,-0.90625 0.25,-1.03125 0.078125,-0.1875 0.25,-0.34375 0.46875,-0.34375 0.03125,0 0.296875,0 0.484375,0.1875 -0.4375,0.03125 -0.546875,0.390625 -0.546875,0.53125 0,0.234375 0.1875,0.359375 0.375,0.359375 C 5.21875,-5.734375 5.5,-5.96875 5.5,-6.34375 c 0,-0.453125 -0.453125,-0.6875 -0.859375,-0.6875 -0.34375,0 -0.96875,0.1875 -1.265625,1.171875 -0.0625,0.203125 -0.09375,0.3125 -0.328125,1.5625 h -0.6875 c -0.203125,0 -0.3125,0 -0.3125,0.1875 0,0.125 0.09375,0.125 0.28125,0.125 h 0.65625 L 2.25,-0.046875 c -0.1875,0.96875 -0.359375,1.875 -0.875,1.875 -0.046875,0 -0.28125,0 -0.484375,-0.1875 C 1.359375,1.609375 1.453125,1.25 1.453125,1.109375 1.453125,0.875 1.265625,0.75 1.078125,0.75 0.8125,0.75 0.53125,0.984375 0.53125,1.359375 c 0,0.4375 0.4375,0.6875 0.84375,0.6875 0.546875,0 0.953125,-0.59375 1.125,-0.96875 0.328125,-0.625 0.546875,-1.828125 0.5625,-1.90625 z m 0,0"
             id="path8998" />
        </g>
      </g>
      <g
         fill="#000000"
         fill-opacity="1"
         id="g5187"
         transform="translate(-149.243,-127.281)">
        <g
           transform="translate(154.662,134.765)"
           id="g5618">
          <path
             d="m 3.296875,2.390625 c 0,-0.03125 0,-0.046875 -0.171875,-0.21875 C 1.890625,0.921875 1.5625,-0.96875 1.5625,-2.5 c 0,-1.734375 0.375,-3.46875 1.609375,-4.703125 0.125,-0.125 0.125,-0.140625 0.125,-0.171875 0,-0.078125 -0.03125,-0.109375 -0.09375,-0.109375 -0.109375,0 -1,0.6875 -1.59375,1.953125 -0.5,1.09375 -0.625,2.203125 -0.625,3.03125 0,0.78125 0.109375,1.984375 0.65625,3.125 C 2.25,1.84375 3.09375,2.5 3.203125,2.5 c 0.0625,0 0.09375,-0.03125 0.09375,-0.109375 z m 0,0"
             id="path6635" />
        </g>
      </g>
      <g
         fill="#000000"
         fill-opacity="1"
         id="g1741"
         transform="translate(-149.243,-127.281)">
        <g
           transform="translate(158.537,134.765)"
           id="g3808">
          <path
             d="M 4.828125,-4.09375 4,-6.078125 c -0.03125,-0.078125 -0.046875,-0.125 -0.046875,-0.125 0,-0.0625 0.15625,-0.25 0.578125,-0.296875 0.109375,-0.015625 0.203125,-0.015625 0.203125,-0.1875 0,-0.125 -0.125,-0.125 -0.15625,-0.125 -0.40625,0 -0.828125,0.03125 -1.25,0.03125 -0.25,0 -0.859375,-0.03125 -1.109375,-0.03125 -0.0625,0 -0.1875,0 -0.1875,0.203125 C 2.03125,-6.5 2.140625,-6.5 2.265625,-6.5 c 0.59375,0 0.65625,0.09375 0.75,0.3125 l 1.171875,2.78125 -2.109375,2.265625 -0.125,0.109375 C 1.46875,-0.5 1,-0.34375 0.484375,-0.3125 c -0.125,0.015625 -0.21875,0.015625 -0.21875,0.203125 0,0.015625 0,0.109375 0.140625,0.109375 0.296875,0 0.625,-0.03125 0.921875,-0.03125 C 1.703125,-0.03125 2.09375,0 2.453125,0 2.515625,0 2.625,0 2.625,-0.203125 2.625,-0.296875 2.53125,-0.3125 2.515625,-0.3125 c -0.09375,0 -0.40625,-0.03125 -0.40625,-0.3125 0,-0.15625 0.15625,-0.3125 0.265625,-0.4375 L 3.40625,-2.140625 4.296875,-3.125 l 1,2.390625 c 0.046875,0.109375 0.0625,0.109375 0.0625,0.140625 0,0.078125 -0.203125,0.25 -0.578125,0.28125 C 4.671875,-0.296875 4.578125,-0.296875 4.578125,-0.125 4.578125,0 4.6875,0 4.71875,0 5,0 5.703125,-0.03125 5.984375,-0.03125 6.234375,-0.03125 6.84375,0 7.09375,0 c 0.0625,0 0.1875,0 0.1875,-0.1875 0,-0.125 -0.109375,-0.125 -0.1875,-0.125 -0.65625,0 -0.6875,-0.03125 -0.859375,-0.4375 C 5.859375,-1.671875 5.1875,-3.234375 4.953125,-3.828125 5.625,-4.53125 6.671875,-5.71875 7,-5.984375 7.28125,-6.234375 7.671875,-6.46875 8.265625,-6.5 c 0.125,-0.015625 0.21875,-0.015625 0.21875,-0.203125 0,0 0,-0.109375 -0.125,-0.109375 -0.296875,0 -0.640625,0.03125 -0.9375,0.03125 -0.375,0 -0.75,-0.03125 -1.109375,-0.03125 -0.0625,0 -0.1875,0 -0.1875,0.203125 0,0.0625 0.046875,0.09375 0.109375,0.109375 0.09375,0.015625 0.40625,0.03125 0.40625,0.3125 0,0.140625 -0.109375,0.265625 -0.1875,0.359375 z m 0,0"
             id="path4706" />
        </g>
      </g>
      <g
         fill="#000000"
         fill-opacity="1"
         id="g487"
         transform="translate(-149.243,-127.281)">
        <g
           transform="translate(167.572,134.765)"
           id="g5309">
          <path
             d="m 2.875,-2.5 c 0,-0.765625 -0.109375,-1.96875 -0.65625,-3.109375 -0.59375,-1.21875 -1.453125,-1.875 -1.546875,-1.875 -0.0625,0 -0.109375,0.046875 -0.109375,0.109375 0,0.03125 0,0.046875 0.1875,0.234375 0.984375,0.984375 1.546875,2.5625 1.546875,4.640625 0,1.71875 -0.359375,3.46875 -1.59375,4.71875 C 0.5625,2.34375 0.5625,2.359375 0.5625,2.390625 0.5625,2.453125 0.609375,2.5 0.671875,2.5 0.765625,2.5 1.671875,1.8125 2.25,0.546875 2.765625,-0.546875 2.875,-1.65625 2.875,-2.5 Z m 0,0"
             id="path7507" />
        </g>
      </g>
    </g>
    <g
       id="g8026"
       transform="matrix(2.5730793,0,0,2.5988891,236.18774,14.008571)"
       ns3:version="1.13.0"
       ns3:texconverter="pdflatex"
       ns3:pdfconverter="inkscape"
       ns3:text="$X$"
       ns3:preamble="/home/adityay/.config/inkscape/extensions/textext/default_packages.tex"
       ns3:scale="1.0"
       ns3:alignment="middle center"
       ns3:jacobian_sqrt="1.33333">
      <defs
         id="defs9829">
        <g
           id="g9367">
          <g
             id="g8650">
            <path
               d="M 4.828125,-4.09375 4,-6.078125 c -0.03125,-0.078125 -0.046875,-0.125 -0.046875,-0.125 0,-0.0625 0.15625,-0.25 0.578125,-0.296875 0.109375,-0.015625 0.203125,-0.015625 0.203125,-0.1875 0,-0.125 -0.125,-0.125 -0.15625,-0.125 -0.40625,0 -0.828125,0.03125 -1.25,0.03125 -0.25,0 -0.859375,-0.03125 -1.109375,-0.03125 -0.0625,0 -0.1875,0 -0.1875,0.203125 C 2.03125,-6.5 2.140625,-6.5 2.265625,-6.5 c 0.59375,0 0.65625,0.09375 0.75,0.3125 l 1.171875,2.78125 -2.109375,2.265625 -0.125,0.109375 C 1.46875,-0.5 1,-0.34375 0.484375,-0.3125 c -0.125,0.015625 -0.21875,0.015625 -0.21875,0.203125 0,0.015625 0,0.109375 0.140625,0.109375 0.296875,0 0.625,-0.03125 0.921875,-0.03125 C 1.703125,-0.03125 2.09375,0 2.453125,0 2.515625,0 2.625,0 2.625,-0.203125 2.625,-0.296875 2.53125,-0.3125 2.515625,-0.3125 c -0.09375,0 -0.40625,-0.03125 -0.40625,-0.3125 0,-0.15625 0.15625,-0.3125 0.265625,-0.4375 L 3.40625,-2.140625 4.296875,-3.125 l 1,2.390625 c 0.046875,0.109375 0.0625,0.109375 0.0625,0.140625 0,0.078125 -0.203125,0.25 -0.578125,0.28125 C 4.671875,-0.296875 4.578125,-0.296875 4.578125,-0.125 4.578125,0 4.6875,0 4.71875,0 5,0 5.703125,-0.03125 5.984375,-0.03125 6.234375,-0.03125 6.84375,0 7.09375,0 c 0.0625,0 0.1875,0 0.1875,-0.1875 0,-0.125 -0.109375,-0.125 -0.1875,-0.125 -0.65625,0 -0.6875,-0.03125 -0.859375,-0.4375 C 5.859375,-1.671875 5.1875,-3.234375 4.953125,-3.828125 5.625,-4.53125 6.671875,-5.71875 7,-5.984375 7.28125,-6.234375 7.671875,-6.46875 8.265625,-6.5 c 0.125,-0.015625 0.21875,-0.015625 0.21875,-0.203125 0,0 0,-0.109375 -0.125,-0.109375 -0.296875,0 -0.640625,0.03125 -0.9375,0.03125 -0.375,0 -0.75,-0.03125 -1.109375,-0.03125 -0.0625,0 -0.1875,0 -0.1875,0.203125 0,0.0625 0.046875,0.09375 0.109375,0.109375 0.09375,0.015625 0.40625,0.03125 0.40625,0.3125 0,0.140625 -0.109375,0.265625 -0.1875,0.359375 z m 0,0"
               id="path2573" />
          </g>
        </g>
      </defs>
      <g
         fill="#000000"
         fill-opacity="1"
         id="g6197"
         transform="translate(-148.978,-127.953)">
        <g
           transform="translate(148.712,134.765)"
           id="g7417">
          <path
             d="M 4.828125,-4.09375 4,-6.078125 c -0.03125,-0.078125 -0.046875,-0.125 -0.046875,-0.125 0,-0.0625 0.15625,-0.25 0.578125,-0.296875 0.109375,-0.015625 0.203125,-0.015625 0.203125,-0.1875 0,-0.125 -0.125,-0.125 -0.15625,-0.125 -0.40625,0 -0.828125,0.03125 -1.25,0.03125 -0.25,0 -0.859375,-0.03125 -1.109375,-0.03125 -0.0625,0 -0.1875,0 -0.1875,0.203125 C 2.03125,-6.5 2.140625,-6.5 2.265625,-6.5 c 0.59375,0 0.65625,0.09375 0.75,0.3125 l 1.171875,2.78125 -2.109375,2.265625 -0.125,0.109375 C 1.46875,-0.5 1,-0.34375 0.484375,-0.3125 c -0.125,0.015625 -0.21875,0.015625 -0.21875,0.203125 0,0.015625 0,0.109375 0.140625,0.109375 0.296875,0 0.625,-0.03125 0.921875,-0.03125 C 1.703125,-0.03125 2.09375,0 2.453125,0 2.515625,0 2.625,0 2.625,-0.203125 2.625,-0.296875 2.53125,-0.3125 2.515625,-0.3125 c -0.09375,0 -0.40625,-0.03125 -0.40625,-0.3125 0,-0.15625 0.15625,-0.3125 0.265625,-0.4375 L 3.40625,-2.140625 4.296875,-3.125 l 1,2.390625 c 0.046875,0.109375 0.0625,0.109375 0.0625,0.140625 0,0.078125 -0.203125,0.25 -0.578125,0.28125 C 4.671875,-0.296875 4.578125,-0.296875 4.578125,-0.125 4.578125,0 4.6875,0 4.71875,0 5,0 5.703125,-0.03125 5.984375,-0.03125 6.234375,-0.03125 6.84375,0 7.09375,0 c 0.0625,0 0.1875,0 0.1875,-0.1875 0,-0.125 -0.109375,-0.125 -0.1875,-0.125 -0.65625,0 -0.6875,-0.03125 -0.859375,-0.4375 C 5.859375,-1.671875 5.1875,-3.234375 4.953125,-3.828125 5.625,-4.53125 6.671875,-5.71875 7,-5.984375 7.28125,-6.234375 7.671875,-6.46875 8.265625,-6.5 c 0.125,-0.015625 0.21875,-0.015625 0.21875,-0.203125 0,0 0,-0.109375 -0.125,-0.109375 -0.296875,0 -0.640625,0.03125 -0.9375,0.03125 -0.375,0 -0.75,-0.03125 -1.109375,-0.03125 -0.0625,0 -0.1875,0 -0.1875,0.203125 0,0.0625 0.046875,0.09375 0.109375,0.109375 0.09375,0.015625 0.40625,0.03125 0.40625,0.3125 0,0.140625 -0.109375,0.265625 -0.1875,0.359375 z m 0,0"
             id="path4275" />
        </g>
      </g>
    </g>
    <g
       id="g8699"
       transform="matrix(2.4864832,0,0,2.5988891,239.44619,95.260823)"
       ns3:version="1.13.0"
       ns3:texconverter="pdflatex"
       ns3:pdfconverter="inkscape"
       ns3:text="$Y$"
       ns3:preamble="/home/adityay/.config/inkscape/extensions/textext/default_packages.tex"
       ns3:scale="1.0"
       ns3:alignment="middle center"
       ns3:jacobian_sqrt="1.33333">
      <defs
         id="defs2291">
        <g
           id="g8100">
          <g
             id="g8721">
            <path
               d="M 5.953125,-5.671875 6.09375,-5.8125 C 6.390625,-6.109375 6.71875,-6.453125 7.390625,-6.5 7.5,-6.515625 7.59375,-6.515625 7.59375,-6.6875 c 0,-0.078125 -0.046875,-0.125 -0.125,-0.125 -0.265625,0 -0.546875,0.03125 -0.8125,0.03125 -0.34375,0 -0.6875,-0.03125 -1,-0.03125 -0.0625,0 -0.1875,0 -0.1875,0.1875 0,0.109375 0.09375,0.125 0.140625,0.125 0.078125,0 0.359375,0.015625 0.359375,0.234375 0,0.171875 -0.234375,0.421875 -0.265625,0.46875 L 3.390625,-3.125 2.296875,-6.09375 C 2.234375,-6.234375 2.234375,-6.25 2.234375,-6.265625 2.234375,-6.5 2.71875,-6.5 2.828125,-6.5 c 0.125,0 0.234375,0 0.234375,-0.203125 0,-0.109375 -0.125,-0.109375 -0.15625,-0.109375 -0.28125,0 -0.96875,0.03125 -1.25,0.03125 -0.25,0 -0.875,-0.03125 -1.125,-0.03125 -0.046875,0 -0.1875,0 -0.1875,0.203125 C 0.34375,-6.5 0.453125,-6.5 0.578125,-6.5 c 0.59375,0 0.640625,0.09375 0.734375,0.34375 L 2.53125,-2.875 c 0.015625,0.03125 0.046875,0.140625 0.046875,0.15625 0,0.03125 -0.40625,1.640625 -0.453125,1.828125 C 2,-0.34375 1.984375,-0.3125 1.1875,-0.3125 c -0.1875,0 -0.265625,0 -0.265625,0.203125 C 0.921875,0 1.03125,0 1.0625,0 c 0.265625,0 0.96875,-0.03125 1.25,-0.03125 0.28125,0 1,0.03125 1.28125,0.03125 0.0625,0 0.1875,0 0.1875,-0.203125 C 3.78125,-0.3125 3.6875,-0.3125 3.5,-0.3125 c -0.015625,0 -0.203125,0 -0.375,-0.015625 C 2.90625,-0.34375 2.84375,-0.375 2.84375,-0.484375 c 0,-0.078125 0.09375,-0.421875 0.140625,-0.625 l 0.359375,-1.40625 c 0.046875,-0.203125 0.0625,-0.21875 0.140625,-0.3125 z m 0,0"
               id="path9237" />
          </g>
        </g>
      </defs>
      <g
         fill="#000000"
         fill-opacity="1"
         id="g7989"
         transform="translate(-149.056,-127.953)">
        <g
           transform="translate(148.712,134.765)"
           id="g5892">
          <path
             d="M 5.953125,-5.671875 6.09375,-5.8125 C 6.390625,-6.109375 6.71875,-6.453125 7.390625,-6.5 7.5,-6.515625 7.59375,-6.515625 7.59375,-6.6875 c 0,-0.078125 -0.046875,-0.125 -0.125,-0.125 -0.265625,0 -0.546875,0.03125 -0.8125,0.03125 -0.34375,0 -0.6875,-0.03125 -1,-0.03125 -0.0625,0 -0.1875,0 -0.1875,0.1875 0,0.109375 0.09375,0.125 0.140625,0.125 0.078125,0 0.359375,0.015625 0.359375,0.234375 0,0.171875 -0.234375,0.421875 -0.265625,0.46875 L 3.390625,-3.125 2.296875,-6.09375 C 2.234375,-6.234375 2.234375,-6.25 2.234375,-6.265625 2.234375,-6.5 2.71875,-6.5 2.828125,-6.5 c 0.125,0 0.234375,0 0.234375,-0.203125 0,-0.109375 -0.125,-0.109375 -0.15625,-0.109375 -0.28125,0 -0.96875,0.03125 -1.25,0.03125 -0.25,0 -0.875,-0.03125 -1.125,-0.03125 -0.046875,0 -0.1875,0 -0.1875,0.203125 C 0.34375,-6.5 0.453125,-6.5 0.578125,-6.5 c 0.59375,0 0.640625,0.09375 0.734375,0.34375 L 2.53125,-2.875 c 0.015625,0.03125 0.046875,0.140625 0.046875,0.15625 0,0.03125 -0.40625,1.640625 -0.453125,1.828125 C 2,-0.34375 1.984375,-0.3125 1.1875,-0.3125 c -0.1875,0 -0.265625,0 -0.265625,0.203125 C 0.921875,0 1.03125,0 1.0625,0 c 0.265625,0 0.96875,-0.03125 1.25,-0.03125 0.28125,0 1,0.03125 1.28125,0.03125 0.0625,0 0.1875,0 0.1875,-0.203125 C 3.78125,-0.3125 3.6875,-0.3125 3.5,-0.3125 c -0.015625,0 -0.203125,0 -0.375,-0.015625 C 2.90625,-0.34375 2.84375,-0.375 2.84375,-0.484375 c 0,-0.078125 0.09375,-0.421875 0.140625,-0.625 l 0.359375,-1.40625 c 0.046875,-0.203125 0.0625,-0.21875 0.140625,-0.3125 z m 0,0"
             id="path8741" />
        </g>
      </g>
    </g>
    <g
       id="g7516"
       transform="matrix(1.7996511,0,0,1.8704418,417.67532,61.703846)"
       ns3:version="1.13.0"
       ns3:texconverter="pdflatex"
       ns3:pdfconverter="inkscape"
       ns3:text="$M_{f}$"
       ns3:preamble="/home/adityay/.config/inkscape/extensions/textext/default_packages.tex"
       ns3:scale="1.0"
       ns3:alignment="middle center"
       ns3:jacobian_sqrt="1.33333">
      <defs
         id="defs1208">
        <g
           id="g6052">
          <g
             id="g6846">
            <path
               d="M 9.234375,-6.046875 C 9.328125,-6.40625 9.34375,-6.5 10.09375,-6.5 c 0.21875,0 0.3125,0 0.3125,-0.203125 0,-0.109375 -0.09375,-0.109375 -0.265625,-0.109375 h -1.3125 c -0.265625,0 -0.28125,0 -0.390625,0.1875 L 4.796875,-0.9375 4.015625,-6.578125 C 3.984375,-6.8125 3.96875,-6.8125 3.703125,-6.8125 H 2.34375 c -0.1875,0 -0.296875,0 -0.296875,0.1875 0,0.125 0.09375,0.125 0.28125,0.125 0.140625,0 0.3125,0.015625 0.4375,0.015625 0.15625,0.03125 0.21875,0.046875 0.21875,0.171875 0,0.03125 -0.015625,0.0625 -0.046875,0.1875 l -1.265625,5.0625 c -0.09375,0.40625 -0.265625,0.71875 -1.078125,0.75 -0.046875,0 -0.171875,0.015625 -0.171875,0.1875 0,0.09375 0.0625,0.125 0.140625,0.125 0.3125,0 0.65625,-0.03125 1,-0.03125 C 1.890625,-0.03125 2.25,0 2.578125,0 c 0.046875,0 0.1875,0 0.1875,-0.203125 0,-0.109375 -0.109375,-0.109375 -0.1875,-0.109375 -0.5625,0 -0.671875,-0.203125 -0.671875,-0.4375 0,-0.0625 0,-0.125 0.03125,-0.234375 L 3.296875,-6.40625 H 3.3125 l 0.859375,6.171875 C 4.1875,-0.109375 4.203125,0 4.3125,0 4.421875,0 4.484375,-0.109375 4.53125,-0.171875 l 4.03125,-6.3125 h 0.015625 l -1.4375,5.703125 c -0.09375,0.390625 -0.109375,0.46875 -0.90625,0.46875 -0.15625,0 -0.265625,0 -0.265625,0.1875 C 5.96875,0 6.078125,0 6.109375,0 6.390625,0 7.0625,-0.03125 7.34375,-0.03125 7.75,-0.03125 8.1875,0 8.59375,0 8.65625,0 8.78125,0 8.78125,-0.203125 8.78125,-0.3125 8.6875,-0.3125 8.5,-0.3125 c -0.359375,0 -0.640625,0 -0.640625,-0.171875 0,-0.046875 0,-0.0625 0.046875,-0.25 z m 0,0"
               id="path9383" />
          </g>
          <g
             id="g5457">
            <path
               d="M 2.84375,-2.75 H 3.515625 C 3.65625,-2.75 3.75,-2.75 3.75,-2.90625 3.75,-3 3.65625,-3 3.53125,-3 H 2.890625 c 0.15625,-0.890625 0.203125,-1.203125 0.265625,-1.40625 0.03125,-0.15625 0.1875,-0.296875 0.359375,-0.296875 0,0 0.1875,0 0.328125,0.078125 -0.296875,0.09375 -0.3125,0.34375 -0.3125,0.375 0,0.15625 0.125,0.265625 0.28125,0.265625 0.1875,0 0.390625,-0.15625 0.390625,-0.421875 0,-0.328125 -0.328125,-0.5 -0.6875,-0.5 -0.3125,0 -0.65625,0.171875 -0.84375,0.515625 C 2.53125,-4.125 2.484375,-3.8125 2.328125,-3 H 1.78125 c -0.140625,0 -0.234375,0 -0.234375,0.15625 0,0.09375 0.09375,0.09375 0.21875,0.09375 H 2.28125 c 0,0.046875 -0.4375,2.546875 -0.609375,3.296875 -0.03125,0.15625 -0.15625,0.671875 -0.484375,0.671875 -0.015625,0 -0.171875,0 -0.3125,-0.078125 0.28125,-0.09375 0.3125,-0.34375 0.3125,-0.375 C 1.1875,0.609375 1.0625,0.5 0.90625,0.5 c -0.1875,0 -0.390625,0.15625 -0.390625,0.421875 0,0.3125 0.328125,0.5 0.671875,0.5 0.4375,0 0.75,-0.453125 0.828125,-0.609375 0.25,-0.46875 0.421875,-1.328125 0.4375,-1.40625 z m 0,0"
               id="path6688" />
          </g>
        </g>
      </defs>
      <g
         fill="#000000"
         fill-opacity="1"
         id="g3019"
         transform="translate(-149.134,-127.953)">
        <g
           transform="translate(148.712,134.765)"
           id="g4757">
          <path
             d="M 9.234375,-6.046875 C 9.328125,-6.40625 9.34375,-6.5 10.09375,-6.5 c 0.21875,0 0.3125,0 0.3125,-0.203125 0,-0.109375 -0.09375,-0.109375 -0.265625,-0.109375 h -1.3125 c -0.265625,0 -0.28125,0 -0.390625,0.1875 L 4.796875,-0.9375 4.015625,-6.578125 C 3.984375,-6.8125 3.96875,-6.8125 3.703125,-6.8125 H 2.34375 c -0.1875,0 -0.296875,0 -0.296875,0.1875 0,0.125 0.09375,0.125 0.28125,0.125 0.140625,0 0.3125,0.015625 0.4375,0.015625 0.15625,0.03125 0.21875,0.046875 0.21875,0.171875 0,0.03125 -0.015625,0.0625 -0.046875,0.1875 l -1.265625,5.0625 c -0.09375,0.40625 -0.265625,0.71875 -1.078125,0.75 -0.046875,0 -0.171875,0.015625 -0.171875,0.1875 0,0.09375 0.0625,0.125 0.140625,0.125 0.3125,0 0.65625,-0.03125 1,-0.03125 C 1.890625,-0.03125 2.25,0 2.578125,0 c 0.046875,0 0.1875,0 0.1875,-0.203125 0,-0.109375 -0.109375,-0.109375 -0.1875,-0.109375 -0.5625,0 -0.671875,-0.203125 -0.671875,-0.4375 0,-0.0625 0,-0.125 0.03125,-0.234375 L 3.296875,-6.40625 H 3.3125 l 0.859375,6.171875 C 4.1875,-0.109375 4.203125,0 4.3125,0 4.421875,0 4.484375,-0.109375 4.53125,-0.171875 l 4.03125,-6.3125 h 0.015625 l -1.4375,5.703125 c -0.09375,0.390625 -0.109375,0.46875 -0.90625,0.46875 -0.15625,0 -0.265625,0 -0.265625,0.1875 C 5.96875,0 6.078125,0 6.109375,0 6.390625,0 7.0625,-0.03125 7.34375,-0.03125 7.75,-0.03125 8.1875,0 8.59375,0 8.65625,0 8.78125,0 8.78125,-0.203125 8.78125,-0.3125 8.6875,-0.3125 8.5,-0.3125 c -0.359375,0 -0.640625,0 -0.640625,-0.171875 0,-0.046875 0,-0.0625 0.046875,-0.25 z m 0,0"
             id="path5956" />
        </g>
      </g>
      <g
         fill="#000000"
         fill-opacity="1"
         id="g162"
         transform="translate(-149.134,-127.953)">
        <g
           transform="translate(158.377,136.259)"
           id="g5904">
          <path
             d="M 2.84375,-2.75 H 3.515625 C 3.65625,-2.75 3.75,-2.75 3.75,-2.90625 3.75,-3 3.65625,-3 3.53125,-3 H 2.890625 c 0.15625,-0.890625 0.203125,-1.203125 0.265625,-1.40625 0.03125,-0.15625 0.1875,-0.296875 0.359375,-0.296875 0,0 0.1875,0 0.328125,0.078125 -0.296875,0.09375 -0.3125,0.34375 -0.3125,0.375 0,0.15625 0.125,0.265625 0.28125,0.265625 0.1875,0 0.390625,-0.15625 0.390625,-0.421875 0,-0.328125 -0.328125,-0.5 -0.6875,-0.5 -0.3125,0 -0.65625,0.171875 -0.84375,0.515625 C 2.53125,-4.125 2.484375,-3.8125 2.328125,-3 H 1.78125 c -0.140625,0 -0.234375,0 -0.234375,0.15625 0,0.09375 0.09375,0.09375 0.21875,0.09375 H 2.28125 c 0,0.046875 -0.4375,2.546875 -0.609375,3.296875 -0.03125,0.15625 -0.15625,0.671875 -0.484375,0.671875 -0.015625,0 -0.171875,0 -0.3125,-0.078125 0.28125,-0.09375 0.3125,-0.34375 0.3125,-0.375 C 1.1875,0.609375 1.0625,0.5 0.90625,0.5 c -0.1875,0 -0.390625,0.15625 -0.390625,0.421875 0,0.3125 0.328125,0.5 0.671875,0.5 0.4375,0 0.75,-0.453125 0.828125,-0.609375 0.25,-0.46875 0.421875,-1.328125 0.4375,-1.40625 z m 0,0"
             id="path6208" />
        </g>
      </g>
    </g>
  </g>
</svg>
